<?xml version="1.0" encoding="utf-8" standalone="no"?>
<!DOCTYPE svg PUBLIC "-//W3C//DTD SVG 1.1//EN"
  "http://www.w3.org/Graphics/SVG/1.1/DTD/svg11.dtd">
<svg xmlns:xlink="http://www.w3.org/1999/xlink" width="1000.441875pt" height="498.043991pt" viewBox="0 0 1000.441875 498.043991" xmlns="http://www.w3.org/2000/svg" version="1.1">
 <metadata>
  <rdf:RDF xmlns:dc="http://purl.org/dc/elements/1.1/" xmlns:cc="http://creativecommons.org/ns#" xmlns:rdf="http://www.w3.org/1999/02/22-rdf-syntax-ns#">
   <cc:Work>
    <dc:type rdf:resource="http://purl.org/dc/dcmitype/StillImage"/>
    <dc:date>2025-09-19T12:14:17.802217</dc:date>
    <dc:format>image/svg+xml</dc:format>
    <dc:creator>
     <cc:Agent>
      <dc:title>Matplotlib v3.9.2, https://matplotlib.org/</dc:title>
     </cc:Agent>
    </dc:creator>
   </cc:Work>
  </rdf:RDF>
 </metadata>
 <defs>
  <style type="text/css">*{stroke-linejoin: round; stroke-linecap: butt}</style>
 </defs>
 <g id="figure_1">
  <g id="patch_1">
   <path d="M 0 498.043991 
L 1000.441875 498.043991 
L 1000.441875 0 
L 0 0 
z
" style="fill: #ffffff"/>
  </g>
  <g id="axes_1">
   <g id="patch_2">
    <path d="M 47.933438 447.741839 
L 965.233437 447.741839 
L 965.233437 97.04 
L 47.933438 97.04 
z
" style="fill: #ffffff"/>
   </g>
   <g id="patch_3">
    <path d="M 89.628892 447.741839 
L 135.957175 447.741839 
L 135.957175 306.738007 
L 89.628892 306.738007 
z
" clip-path="url(#p4de8b5cd06)" style="fill: #009e73; stroke: #ffffff; stroke-width: 0.8; stroke-linejoin: miter"/>
   </g>
   <g id="patch_4">
    <path d="M 166.842697 447.741839 
L 213.17098 447.741839 
L 213.17098 398.679924 
L 166.842697 398.679924 
z
" clip-path="url(#p4de8b5cd06)" style="fill: #e69f00; stroke: #ffffff; stroke-width: 0.8; stroke-linejoin: miter"/>
   </g>
   <g id="patch_5">
    <path d="M 244.056501 447.741839 
L 290.384784 447.741839 
L 290.384784 411.58701 
L 244.056501 411.58701 
z
" clip-path="url(#p4de8b5cd06)" style="fill: #0072b2; stroke: #ffffff; stroke-width: 0.8; stroke-linejoin: miter"/>
   </g>
   <g id="patch_6">
    <path d="M 321.270306 447.741839 
L 367.598589 447.741839 
L 367.598589 428.472507 
L 321.270306 428.472507 
z
" clip-path="url(#p4de8b5cd06)" style="fill: #d55e00; stroke: #ffffff; stroke-width: 0.8; stroke-linejoin: miter"/>
   </g>
   <g id="patch_7">
    <path d="M 398.484111 447.741839 
L 444.812394 447.741839 
L 444.812394 440.435551 
L 398.484111 440.435551 
z
" clip-path="url(#p4de8b5cd06)" style="fill: #cc79a7; stroke: #ffffff; stroke-width: 0.8; stroke-linejoin: miter"/>
   </g>
   <g id="patch_8">
    <path d="M 475.697916 447.741839 
L 522.026198 447.741839 
L 522.026198 223.21844 
L 475.697916 223.21844 
z
" clip-path="url(#p4de8b5cd06)" style="fill: #56b4e9; stroke: #ffffff; stroke-width: 0.8; stroke-linejoin: miter"/>
   </g>
   <g id="patch_9">
    <path d="M 552.91172 447.741839 
L 599.240003 447.741839 
L 599.240003 281.429627 
L 552.91172 281.429627 
z
" clip-path="url(#p4de8b5cd06)" style="stroke: #ffffff; stroke-width: 0.8; stroke-linejoin: miter"/>
   </g>
   <g id="patch_10">
    <path d="M 630.125525 447.741839 
L 676.453808 447.741839 
L 676.453808 279.621885 
L 630.125525 279.621885 
z
" clip-path="url(#p4de8b5cd06)" style="fill: #f0e442; stroke: #ffffff; stroke-width: 0.8; stroke-linejoin: miter"/>
   </g>
   <g id="patch_11">
    <path d="M 707.33933 447.741839 
L 753.667613 447.741839 
L 753.667613 397.32845 
L 707.33933 397.32845 
z
" clip-path="url(#p4de8b5cd06)" style="fill: #7f7f7f; stroke: #ffffff; stroke-width: 0.8; stroke-linejoin: miter"/>
   </g>
   <g id="patch_12">
    <path d="M 89.628892 306.738007 
L 135.957175 306.738007 
L 135.957175 306.738007 
L 89.628892 306.738007 
z
" clip-path="url(#p4de8b5cd06)" style="fill: url(#h145727ce73); stroke: #000000; stroke-width: 0.8; stroke-linejoin: miter"/>
   </g>
   <g id="patch_13">
    <path d="M 166.842697 398.679924 
L 213.17098 398.679924 
L 213.17098 229.688882 
L 166.842697 229.688882 
z
" clip-path="url(#p4de8b5cd06)" style="fill: url(#h145727ce73); stroke: #000000; stroke-width: 0.8; stroke-linejoin: miter"/>
   </g>
   <g id="patch_14">
    <path d="M 244.056501 411.58701 
L 290.384784 411.58701 
L 290.384784 263.352212 
L 244.056501 263.352212 
z
" clip-path="url(#p4de8b5cd06)" style="fill: url(#h145727ce73); stroke: #000000; stroke-width: 0.8; stroke-linejoin: miter"/>
   </g>
   <g id="patch_15">
    <path d="M 321.270306 428.472507 
L 367.598589 428.472507 
L 367.598589 293.587185 
L 321.270306 293.587185 
z
" clip-path="url(#p4de8b5cd06)" style="fill: url(#h145727ce73); stroke: #000000; stroke-width: 0.8; stroke-linejoin: miter"/>
   </g>
   <g id="patch_16">
    <path d="M 398.484111 440.435551 
L 444.812394 440.435551 
L 444.812394 272.39092 
L 398.484111 272.39092 
z
" clip-path="url(#p4de8b5cd06)" style="fill: url(#h145727ce73); stroke: #000000; stroke-width: 0.8; stroke-linejoin: miter"/>
   </g>
   <g id="patch_17">
    <path d="M 475.697916 223.21844 
L 522.026198 223.21844 
L 522.026198 223.21844 
L 475.697916 223.21844 
z
" clip-path="url(#p4de8b5cd06)" style="fill: url(#h145727ce73); stroke: #000000; stroke-width: 0.8; stroke-linejoin: miter"/>
   </g>
   <g id="patch_18">
    <path d="M 552.91172 281.429627 
L 599.240003 281.429627 
L 599.240003 281.429627 
L 552.91172 281.429627 
z
" clip-path="url(#p4de8b5cd06)" style="fill: url(#h145727ce73); stroke: #000000; stroke-width: 0.8; stroke-linejoin: miter"/>
   </g>
   <g id="patch_19">
    <path d="M 630.125525 279.621885 
L 676.453808 279.621885 
L 676.453808 279.621885 
L 630.125525 279.621885 
z
" clip-path="url(#p4de8b5cd06)" style="fill: url(#h145727ce73); stroke: #000000; stroke-width: 0.8; stroke-linejoin: miter"/>
   </g>
   <g id="patch_20">
    <path d="M 707.33933 397.32845 
L 753.667613 397.32845 
L 753.667613 397.32845 
L 707.33933 397.32845 
z
" clip-path="url(#p4de8b5cd06)" style="fill: url(#h145727ce73); stroke: #000000; stroke-width: 0.8; stroke-linejoin: miter"/>
   </g>
   <g id="patch_21">
    <path d="M 877.2097 447.741839 
L 923.537983 447.741839 
L 923.537983 432.074747 
L 877.2097 432.074747 
z
" clip-path="url(#p4de8b5cd06)" style="fill: #009e73; stroke: #ffffff; stroke-width: 0.8; stroke-linejoin: miter"/>
   </g>
   <g id="patch_22">
    <path d="M 877.2097 432.074747 
L 923.537983 432.074747 
L 923.537983 417.235032 
L 877.2097 417.235032 
z
" clip-path="url(#p4de8b5cd06)" style="fill: #e69f00; stroke: #ffffff; stroke-width: 0.8; stroke-linejoin: miter"/>
   </g>
   <g id="patch_23">
    <path d="M 877.2097 417.235032 
L 923.537983 417.235032 
L 923.537983 404.982562 
L 877.2097 404.982562 
z
" clip-path="url(#p4de8b5cd06)" style="fill: #0072b2; stroke: #ffffff; stroke-width: 0.8; stroke-linejoin: miter"/>
   </g>
   <g id="patch_24">
    <path d="M 877.2097 404.982562 
L 923.537983 404.982562 
L 923.537983 395.347896 
L 877.2097 395.347896 
z
" clip-path="url(#p4de8b5cd06)" style="fill: #d55e00; stroke: #ffffff; stroke-width: 0.8; stroke-linejoin: miter"/>
   </g>
   <g id="patch_25">
    <path d="M 877.2097 395.347896 
L 923.537983 395.347896 
L 923.537983 385.200273 
L 877.2097 385.200273 
z
" clip-path="url(#p4de8b5cd06)" style="fill: #cc79a7; stroke: #ffffff; stroke-width: 0.8; stroke-linejoin: miter"/>
   </g>
   <g id="patch_26">
    <path d="M 877.2097 385.200273 
L 923.537983 385.200273 
L 923.537983 360.253229 
L 877.2097 360.253229 
z
" clip-path="url(#p4de8b5cd06)" style="fill: #56b4e9; stroke: #ffffff; stroke-width: 0.8; stroke-linejoin: miter"/>
   </g>
   <g id="patch_27">
    <path d="M 877.2097 360.253229 
L 923.537983 360.253229 
L 923.537983 341.774094 
L 877.2097 341.774094 
z
" clip-path="url(#p4de8b5cd06)" style="stroke: #ffffff; stroke-width: 0.8; stroke-linejoin: miter"/>
   </g>
   <g id="patch_28">
    <path d="M 877.2097 341.774094 
L 923.537983 341.774094 
L 923.537983 323.094099 
L 877.2097 323.094099 
z
" clip-path="url(#p4de8b5cd06)" style="fill: #f0e442; stroke: #ffffff; stroke-width: 0.8; stroke-linejoin: miter"/>
   </g>
   <g id="patch_29">
    <path d="M 877.2097 323.094099 
L 923.537983 323.094099 
L 923.537983 317.492612 
L 877.2097 317.492612 
z
" clip-path="url(#p4de8b5cd06)" style="fill: #7f7f7f; stroke: #ffffff; stroke-width: 0.8; stroke-linejoin: miter"/>
   </g>
   <g id="matplotlib.axis_1">
    <g id="xtick_1">
     <g id="line2d_1">
      <defs>
       <path id="m637628d453" d="M 0 0 
L 0 3.5 
" style="stroke: #000000; stroke-width: 0.8"/>
      </defs>
      <g>
       <use xlink:href="#m637628d453" x="112.793033" y="447.741839" style="stroke: #000000; stroke-width: 0.8"/>
      </g>
     </g>
     <g id="text_1">
      <!-- Quitline -->
      <g transform="translate(74.627432 472.163581) rotate(-15) scale(0.1 -0.1)">
       <defs>
        <path id="DejaVuSans-51" d="M 2522 4238 
Q 1834 4238 1429 3725 
Q 1025 3213 1025 2328 
Q 1025 1447 1429 934 
Q 1834 422 2522 422 
Q 3209 422 3611 934 
Q 4013 1447 4013 2328 
Q 4013 3213 3611 3725 
Q 3209 4238 2522 4238 
z
M 3406 84 
L 4238 -825 
L 3475 -825 
L 2784 -78 
Q 2681 -84 2626 -87 
Q 2572 -91 2522 -91 
Q 1538 -91 948 567 
Q 359 1225 359 2328 
Q 359 3434 948 4092 
Q 1538 4750 2522 4750 
Q 3503 4750 4090 4092 
Q 4678 3434 4678 2328 
Q 4678 1516 4351 937 
Q 4025 359 3406 84 
z
" transform="scale(0.015625)"/>
        <path id="DejaVuSans-75" d="M 544 1381 
L 544 3500 
L 1119 3500 
L 1119 1403 
Q 1119 906 1312 657 
Q 1506 409 1894 409 
Q 2359 409 2629 706 
Q 2900 1003 2900 1516 
L 2900 3500 
L 3475 3500 
L 3475 0 
L 2900 0 
L 2900 538 
Q 2691 219 2414 64 
Q 2138 -91 1772 -91 
Q 1169 -91 856 284 
Q 544 659 544 1381 
z
M 1991 3584 
L 1991 3584 
z
" transform="scale(0.015625)"/>
        <path id="DejaVuSans-69" d="M 603 3500 
L 1178 3500 
L 1178 0 
L 603 0 
L 603 3500 
z
M 603 4863 
L 1178 4863 
L 1178 4134 
L 603 4134 
L 603 4863 
z
" transform="scale(0.015625)"/>
        <path id="DejaVuSans-74" d="M 1172 4494 
L 1172 3500 
L 2356 3500 
L 2356 3053 
L 1172 3053 
L 1172 1153 
Q 1172 725 1289 603 
Q 1406 481 1766 481 
L 2356 481 
L 2356 0 
L 1766 0 
Q 1100 0 847 248 
Q 594 497 594 1153 
L 594 3053 
L 172 3053 
L 172 3500 
L 594 3500 
L 594 4494 
L 1172 4494 
z
" transform="scale(0.015625)"/>
        <path id="DejaVuSans-6c" d="M 603 4863 
L 1178 4863 
L 1178 0 
L 603 0 
L 603 4863 
z
" transform="scale(0.015625)"/>
        <path id="DejaVuSans-6e" d="M 3513 2113 
L 3513 0 
L 2938 0 
L 2938 2094 
Q 2938 2591 2744 2837 
Q 2550 3084 2163 3084 
Q 1697 3084 1428 2787 
Q 1159 2491 1159 1978 
L 1159 0 
L 581 0 
L 581 3500 
L 1159 3500 
L 1159 2956 
Q 1366 3272 1645 3428 
Q 1925 3584 2291 3584 
Q 2894 3584 3203 3211 
Q 3513 2838 3513 2113 
z
" transform="scale(0.015625)"/>
        <path id="DejaVuSans-65" d="M 3597 1894 
L 3597 1613 
L 953 1613 
Q 991 1019 1311 708 
Q 1631 397 2203 397 
Q 2534 397 2845 478 
Q 3156 559 3463 722 
L 3463 178 
Q 3153 47 2828 -22 
Q 2503 -91 2169 -91 
Q 1331 -91 842 396 
Q 353 884 353 1716 
Q 353 2575 817 3079 
Q 1281 3584 2069 3584 
Q 2775 3584 3186 3129 
Q 3597 2675 3597 1894 
z
M 3022 2063 
Q 3016 2534 2758 2815 
Q 2500 3097 2075 3097 
Q 1594 3097 1305 2825 
Q 1016 2553 972 2059 
L 3022 2063 
z
" transform="scale(0.015625)"/>
       </defs>
       <use xlink:href="#DejaVuSans-51"/>
       <use xlink:href="#DejaVuSans-75" x="78.710938"/>
       <use xlink:href="#DejaVuSans-69" x="142.089844"/>
       <use xlink:href="#DejaVuSans-74" x="169.873047"/>
       <use xlink:href="#DejaVuSans-6c" x="209.082031"/>
       <use xlink:href="#DejaVuSans-69" x="236.865234"/>
       <use xlink:href="#DejaVuSans-6e" x="264.648438"/>
       <use xlink:href="#DejaVuSans-65" x="328.027344"/>
      </g>
     </g>
    </g>
    <g id="xtick_2">
     <g id="line2d_2">
      <g>
       <use xlink:href="#m637628d453" x="190.006838" y="447.741839" style="stroke: #000000; stroke-width: 0.8"/>
      </g>
     </g>
     <g id="text_2">
      <!-- Servizi: Primary care -->
      <g transform="translate(89.62203 488.835167) rotate(-15) scale(0.1 -0.1)">
       <defs>
        <path id="DejaVuSans-53" d="M 3425 4513 
L 3425 3897 
Q 3066 4069 2747 4153 
Q 2428 4238 2131 4238 
Q 1616 4238 1336 4038 
Q 1056 3838 1056 3469 
Q 1056 3159 1242 3001 
Q 1428 2844 1947 2747 
L 2328 2669 
Q 3034 2534 3370 2195 
Q 3706 1856 3706 1288 
Q 3706 609 3251 259 
Q 2797 -91 1919 -91 
Q 1588 -91 1214 -16 
Q 841 59 441 206 
L 441 856 
Q 825 641 1194 531 
Q 1563 422 1919 422 
Q 2459 422 2753 634 
Q 3047 847 3047 1241 
Q 3047 1584 2836 1778 
Q 2625 1972 2144 2069 
L 1759 2144 
Q 1053 2284 737 2584 
Q 422 2884 422 3419 
Q 422 4038 858 4394 
Q 1294 4750 2059 4750 
Q 2388 4750 2728 4690 
Q 3069 4631 3425 4513 
z
" transform="scale(0.015625)"/>
        <path id="DejaVuSans-72" d="M 2631 2963 
Q 2534 3019 2420 3045 
Q 2306 3072 2169 3072 
Q 1681 3072 1420 2755 
Q 1159 2438 1159 1844 
L 1159 0 
L 581 0 
L 581 3500 
L 1159 3500 
L 1159 2956 
Q 1341 3275 1631 3429 
Q 1922 3584 2338 3584 
Q 2397 3584 2469 3576 
Q 2541 3569 2628 3553 
L 2631 2963 
z
" transform="scale(0.015625)"/>
        <path id="DejaVuSans-76" d="M 191 3500 
L 800 3500 
L 1894 563 
L 2988 3500 
L 3597 3500 
L 2284 0 
L 1503 0 
L 191 3500 
z
" transform="scale(0.015625)"/>
        <path id="DejaVuSans-7a" d="M 353 3500 
L 3084 3500 
L 3084 2975 
L 922 459 
L 3084 459 
L 3084 0 
L 275 0 
L 275 525 
L 2438 3041 
L 353 3041 
L 353 3500 
z
" transform="scale(0.015625)"/>
        <path id="DejaVuSans-3a" d="M 750 794 
L 1409 794 
L 1409 0 
L 750 0 
L 750 794 
z
M 750 3309 
L 1409 3309 
L 1409 2516 
L 750 2516 
L 750 3309 
z
" transform="scale(0.015625)"/>
        <path id="DejaVuSans-20" transform="scale(0.015625)"/>
        <path id="DejaVuSans-50" d="M 1259 4147 
L 1259 2394 
L 2053 2394 
Q 2494 2394 2734 2622 
Q 2975 2850 2975 3272 
Q 2975 3691 2734 3919 
Q 2494 4147 2053 4147 
L 1259 4147 
z
M 628 4666 
L 2053 4666 
Q 2838 4666 3239 4311 
Q 3641 3956 3641 3272 
Q 3641 2581 3239 2228 
Q 2838 1875 2053 1875 
L 1259 1875 
L 1259 0 
L 628 0 
L 628 4666 
z
" transform="scale(0.015625)"/>
        <path id="DejaVuSans-6d" d="M 3328 2828 
Q 3544 3216 3844 3400 
Q 4144 3584 4550 3584 
Q 5097 3584 5394 3201 
Q 5691 2819 5691 2113 
L 5691 0 
L 5113 0 
L 5113 2094 
Q 5113 2597 4934 2840 
Q 4756 3084 4391 3084 
Q 3944 3084 3684 2787 
Q 3425 2491 3425 1978 
L 3425 0 
L 2847 0 
L 2847 2094 
Q 2847 2600 2669 2842 
Q 2491 3084 2119 3084 
Q 1678 3084 1418 2786 
Q 1159 2488 1159 1978 
L 1159 0 
L 581 0 
L 581 3500 
L 1159 3500 
L 1159 2956 
Q 1356 3278 1631 3431 
Q 1906 3584 2284 3584 
Q 2666 3584 2933 3390 
Q 3200 3197 3328 2828 
z
" transform="scale(0.015625)"/>
        <path id="DejaVuSans-61" d="M 2194 1759 
Q 1497 1759 1228 1600 
Q 959 1441 959 1056 
Q 959 750 1161 570 
Q 1363 391 1709 391 
Q 2188 391 2477 730 
Q 2766 1069 2766 1631 
L 2766 1759 
L 2194 1759 
z
M 3341 1997 
L 3341 0 
L 2766 0 
L 2766 531 
Q 2569 213 2275 61 
Q 1981 -91 1556 -91 
Q 1019 -91 701 211 
Q 384 513 384 1019 
Q 384 1609 779 1909 
Q 1175 2209 1959 2209 
L 2766 2209 
L 2766 2266 
Q 2766 2663 2505 2880 
Q 2244 3097 1772 3097 
Q 1472 3097 1187 3025 
Q 903 2953 641 2809 
L 641 3341 
Q 956 3463 1253 3523 
Q 1550 3584 1831 3584 
Q 2591 3584 2966 3190 
Q 3341 2797 3341 1997 
z
" transform="scale(0.015625)"/>
        <path id="DejaVuSans-79" d="M 2059 -325 
Q 1816 -950 1584 -1140 
Q 1353 -1331 966 -1331 
L 506 -1331 
L 506 -850 
L 844 -850 
Q 1081 -850 1212 -737 
Q 1344 -625 1503 -206 
L 1606 56 
L 191 3500 
L 800 3500 
L 1894 763 
L 2988 3500 
L 3597 3500 
L 2059 -325 
z
" transform="scale(0.015625)"/>
        <path id="DejaVuSans-63" d="M 3122 3366 
L 3122 2828 
Q 2878 2963 2633 3030 
Q 2388 3097 2138 3097 
Q 1578 3097 1268 2742 
Q 959 2388 959 1747 
Q 959 1106 1268 751 
Q 1578 397 2138 397 
Q 2388 397 2633 464 
Q 2878 531 3122 666 
L 3122 134 
Q 2881 22 2623 -34 
Q 2366 -91 2075 -91 
Q 1284 -91 818 406 
Q 353 903 353 1747 
Q 353 2603 823 3093 
Q 1294 3584 2113 3584 
Q 2378 3584 2631 3529 
Q 2884 3475 3122 3366 
z
" transform="scale(0.015625)"/>
       </defs>
       <use xlink:href="#DejaVuSans-53"/>
       <use xlink:href="#DejaVuSans-65" x="63.476562"/>
       <use xlink:href="#DejaVuSans-72" x="125"/>
       <use xlink:href="#DejaVuSans-76" x="166.113281"/>
       <use xlink:href="#DejaVuSans-69" x="225.292969"/>
       <use xlink:href="#DejaVuSans-7a" x="253.076172"/>
       <use xlink:href="#DejaVuSans-69" x="305.566406"/>
       <use xlink:href="#DejaVuSans-3a" x="333.349609"/>
       <use xlink:href="#DejaVuSans-20" x="367.041016"/>
       <use xlink:href="#DejaVuSans-50" x="398.828125"/>
       <use xlink:href="#DejaVuSans-72" x="457.380859"/>
       <use xlink:href="#DejaVuSans-69" x="498.494141"/>
       <use xlink:href="#DejaVuSans-6d" x="526.277344"/>
       <use xlink:href="#DejaVuSans-61" x="623.689453"/>
       <use xlink:href="#DejaVuSans-72" x="684.96875"/>
       <use xlink:href="#DejaVuSans-79" x="726.082031"/>
       <use xlink:href="#DejaVuSans-20" x="785.261719"/>
       <use xlink:href="#DejaVuSans-63" x="817.048828"/>
       <use xlink:href="#DejaVuSans-61" x="872.029297"/>
       <use xlink:href="#DejaVuSans-72" x="933.308594"/>
       <use xlink:href="#DejaVuSans-65" x="972.171875"/>
      </g>
     </g>
    </g>
    <g id="xtick_3">
     <g id="line2d_3">
      <g>
       <use xlink:href="#m637628d453" x="267.220643" y="447.741839" style="stroke: #000000; stroke-width: 0.8"/>
      </g>
     </g>
     <g id="text_3">
      <!-- Servizi: Ospedali -->
      <g transform="translate(186.029083 483.692352) rotate(-15) scale(0.1 -0.1)">
       <defs>
        <path id="DejaVuSans-4f" d="M 2522 4238 
Q 1834 4238 1429 3725 
Q 1025 3213 1025 2328 
Q 1025 1447 1429 934 
Q 1834 422 2522 422 
Q 3209 422 3611 934 
Q 4013 1447 4013 2328 
Q 4013 3213 3611 3725 
Q 3209 4238 2522 4238 
z
M 2522 4750 
Q 3503 4750 4090 4092 
Q 4678 3434 4678 2328 
Q 4678 1225 4090 567 
Q 3503 -91 2522 -91 
Q 1538 -91 948 565 
Q 359 1222 359 2328 
Q 359 3434 948 4092 
Q 1538 4750 2522 4750 
z
" transform="scale(0.015625)"/>
        <path id="DejaVuSans-73" d="M 2834 3397 
L 2834 2853 
Q 2591 2978 2328 3040 
Q 2066 3103 1784 3103 
Q 1356 3103 1142 2972 
Q 928 2841 928 2578 
Q 928 2378 1081 2264 
Q 1234 2150 1697 2047 
L 1894 2003 
Q 2506 1872 2764 1633 
Q 3022 1394 3022 966 
Q 3022 478 2636 193 
Q 2250 -91 1575 -91 
Q 1294 -91 989 -36 
Q 684 19 347 128 
L 347 722 
Q 666 556 975 473 
Q 1284 391 1588 391 
Q 1994 391 2212 530 
Q 2431 669 2431 922 
Q 2431 1156 2273 1281 
Q 2116 1406 1581 1522 
L 1381 1569 
Q 847 1681 609 1914 
Q 372 2147 372 2553 
Q 372 3047 722 3315 
Q 1072 3584 1716 3584 
Q 2034 3584 2315 3537 
Q 2597 3491 2834 3397 
z
" transform="scale(0.015625)"/>
        <path id="DejaVuSans-70" d="M 1159 525 
L 1159 -1331 
L 581 -1331 
L 581 3500 
L 1159 3500 
L 1159 2969 
Q 1341 3281 1617 3432 
Q 1894 3584 2278 3584 
Q 2916 3584 3314 3078 
Q 3713 2572 3713 1747 
Q 3713 922 3314 415 
Q 2916 -91 2278 -91 
Q 1894 -91 1617 61 
Q 1341 213 1159 525 
z
M 3116 1747 
Q 3116 2381 2855 2742 
Q 2594 3103 2138 3103 
Q 1681 3103 1420 2742 
Q 1159 2381 1159 1747 
Q 1159 1113 1420 752 
Q 1681 391 2138 391 
Q 2594 391 2855 752 
Q 3116 1113 3116 1747 
z
" transform="scale(0.015625)"/>
        <path id="DejaVuSans-64" d="M 2906 2969 
L 2906 4863 
L 3481 4863 
L 3481 0 
L 2906 0 
L 2906 525 
Q 2725 213 2448 61 
Q 2172 -91 1784 -91 
Q 1150 -91 751 415 
Q 353 922 353 1747 
Q 353 2572 751 3078 
Q 1150 3584 1784 3584 
Q 2172 3584 2448 3432 
Q 2725 3281 2906 2969 
z
M 947 1747 
Q 947 1113 1208 752 
Q 1469 391 1925 391 
Q 2381 391 2643 752 
Q 2906 1113 2906 1747 
Q 2906 2381 2643 2742 
Q 2381 3103 1925 3103 
Q 1469 3103 1208 2742 
Q 947 2381 947 1747 
z
" transform="scale(0.015625)"/>
       </defs>
       <use xlink:href="#DejaVuSans-53"/>
       <use xlink:href="#DejaVuSans-65" x="63.476562"/>
       <use xlink:href="#DejaVuSans-72" x="125"/>
       <use xlink:href="#DejaVuSans-76" x="166.113281"/>
       <use xlink:href="#DejaVuSans-69" x="225.292969"/>
       <use xlink:href="#DejaVuSans-7a" x="253.076172"/>
       <use xlink:href="#DejaVuSans-69" x="305.566406"/>
       <use xlink:href="#DejaVuSans-3a" x="333.349609"/>
       <use xlink:href="#DejaVuSans-20" x="367.041016"/>
       <use xlink:href="#DejaVuSans-4f" x="398.828125"/>
       <use xlink:href="#DejaVuSans-73" x="477.539062"/>
       <use xlink:href="#DejaVuSans-70" x="529.638672"/>
       <use xlink:href="#DejaVuSans-65" x="593.115234"/>
       <use xlink:href="#DejaVuSans-64" x="654.638672"/>
       <use xlink:href="#DejaVuSans-61" x="718.115234"/>
       <use xlink:href="#DejaVuSans-6c" x="779.394531"/>
       <use xlink:href="#DejaVuSans-69" x="807.177734"/>
      </g>
     </g>
    </g>
    <g id="xtick_4">
     <g id="line2d_4">
      <g>
       <use xlink:href="#m637628d453" x="344.434448" y="447.741839" style="stroke: #000000; stroke-width: 0.8"/>
      </g>
     </g>
     <g id="text_4">
      <!-- Servizi: Comunità -->
      <g transform="translate(258.67587 484.916081) rotate(-15) scale(0.1 -0.1)">
       <defs>
        <path id="DejaVuSans-43" d="M 4122 4306 
L 4122 3641 
Q 3803 3938 3442 4084 
Q 3081 4231 2675 4231 
Q 1875 4231 1450 3742 
Q 1025 3253 1025 2328 
Q 1025 1406 1450 917 
Q 1875 428 2675 428 
Q 3081 428 3442 575 
Q 3803 722 4122 1019 
L 4122 359 
Q 3791 134 3420 21 
Q 3050 -91 2638 -91 
Q 1578 -91 968 557 
Q 359 1206 359 2328 
Q 359 3453 968 4101 
Q 1578 4750 2638 4750 
Q 3056 4750 3426 4639 
Q 3797 4528 4122 4306 
z
" transform="scale(0.015625)"/>
        <path id="DejaVuSans-6f" d="M 1959 3097 
Q 1497 3097 1228 2736 
Q 959 2375 959 1747 
Q 959 1119 1226 758 
Q 1494 397 1959 397 
Q 2419 397 2687 759 
Q 2956 1122 2956 1747 
Q 2956 2369 2687 2733 
Q 2419 3097 1959 3097 
z
M 1959 3584 
Q 2709 3584 3137 3096 
Q 3566 2609 3566 1747 
Q 3566 888 3137 398 
Q 2709 -91 1959 -91 
Q 1206 -91 779 398 
Q 353 888 353 1747 
Q 353 2609 779 3096 
Q 1206 3584 1959 3584 
z
" transform="scale(0.015625)"/>
        <path id="DejaVuSans-e0" d="M 2194 1759 
Q 1497 1759 1228 1600 
Q 959 1441 959 1056 
Q 959 750 1161 570 
Q 1363 391 1709 391 
Q 2188 391 2477 730 
Q 2766 1069 2766 1631 
L 2766 1759 
L 2194 1759 
z
M 3341 1997 
L 3341 0 
L 2766 0 
L 2766 531 
Q 2569 213 2275 61 
Q 1981 -91 1556 -91 
Q 1019 -91 701 211 
Q 384 513 384 1019 
Q 384 1609 779 1909 
Q 1175 2209 1959 2209 
L 2766 2209 
L 2766 2266 
Q 2766 2663 2505 2880 
Q 2244 3097 1772 3097 
Q 1472 3097 1187 3025 
Q 903 2953 641 2809 
L 641 3341 
Q 956 3463 1253 3523 
Q 1550 3584 1831 3584 
Q 2591 3584 2966 3190 
Q 3341 2797 3341 1997 
z
M 1403 5119 
L 2284 3950 
L 1806 3950 
L 788 5119 
L 1403 5119 
z
" transform="scale(0.015625)"/>
       </defs>
       <use xlink:href="#DejaVuSans-53"/>
       <use xlink:href="#DejaVuSans-65" x="63.476562"/>
       <use xlink:href="#DejaVuSans-72" x="125"/>
       <use xlink:href="#DejaVuSans-76" x="166.113281"/>
       <use xlink:href="#DejaVuSans-69" x="225.292969"/>
       <use xlink:href="#DejaVuSans-7a" x="253.076172"/>
       <use xlink:href="#DejaVuSans-69" x="305.566406"/>
       <use xlink:href="#DejaVuSans-3a" x="333.349609"/>
       <use xlink:href="#DejaVuSans-20" x="367.041016"/>
       <use xlink:href="#DejaVuSans-43" x="398.828125"/>
       <use xlink:href="#DejaVuSans-6f" x="468.652344"/>
       <use xlink:href="#DejaVuSans-6d" x="529.833984"/>
       <use xlink:href="#DejaVuSans-75" x="627.246094"/>
       <use xlink:href="#DejaVuSans-6e" x="690.625"/>
       <use xlink:href="#DejaVuSans-69" x="754.003906"/>
       <use xlink:href="#DejaVuSans-74" x="781.787109"/>
       <use xlink:href="#DejaVuSans-e0" x="820.996094"/>
      </g>
     </g>
    </g>
    <g id="xtick_5">
     <g id="line2d_5">
      <g>
       <use xlink:href="#m637628d453" x="421.648252" y="447.741839" style="stroke: #000000; stroke-width: 0.8"/>
      </g>
     </g>
     <g id="text_5">
      <!-- Servizi: Altri setting -->
      <g transform="translate(326.298333 487.486073) rotate(-15) scale(0.1 -0.1)">
       <defs>
        <path id="DejaVuSans-41" d="M 2188 4044 
L 1331 1722 
L 3047 1722 
L 2188 4044 
z
M 1831 4666 
L 2547 4666 
L 4325 0 
L 3669 0 
L 3244 1197 
L 1141 1197 
L 716 0 
L 50 0 
L 1831 4666 
z
" transform="scale(0.015625)"/>
        <path id="DejaVuSans-67" d="M 2906 1791 
Q 2906 2416 2648 2759 
Q 2391 3103 1925 3103 
Q 1463 3103 1205 2759 
Q 947 2416 947 1791 
Q 947 1169 1205 825 
Q 1463 481 1925 481 
Q 2391 481 2648 825 
Q 2906 1169 2906 1791 
z
M 3481 434 
Q 3481 -459 3084 -895 
Q 2688 -1331 1869 -1331 
Q 1566 -1331 1297 -1286 
Q 1028 -1241 775 -1147 
L 775 -588 
Q 1028 -725 1275 -790 
Q 1522 -856 1778 -856 
Q 2344 -856 2625 -561 
Q 2906 -266 2906 331 
L 2906 616 
Q 2728 306 2450 153 
Q 2172 0 1784 0 
Q 1141 0 747 490 
Q 353 981 353 1791 
Q 353 2603 747 3093 
Q 1141 3584 1784 3584 
Q 2172 3584 2450 3431 
Q 2728 3278 2906 2969 
L 2906 3500 
L 3481 3500 
L 3481 434 
z
" transform="scale(0.015625)"/>
       </defs>
       <use xlink:href="#DejaVuSans-53"/>
       <use xlink:href="#DejaVuSans-65" x="63.476562"/>
       <use xlink:href="#DejaVuSans-72" x="125"/>
       <use xlink:href="#DejaVuSans-76" x="166.113281"/>
       <use xlink:href="#DejaVuSans-69" x="225.292969"/>
       <use xlink:href="#DejaVuSans-7a" x="253.076172"/>
       <use xlink:href="#DejaVuSans-69" x="305.566406"/>
       <use xlink:href="#DejaVuSans-3a" x="333.349609"/>
       <use xlink:href="#DejaVuSans-20" x="367.041016"/>
       <use xlink:href="#DejaVuSans-41" x="398.828125"/>
       <use xlink:href="#DejaVuSans-6c" x="467.236328"/>
       <use xlink:href="#DejaVuSans-74" x="495.019531"/>
       <use xlink:href="#DejaVuSans-72" x="534.228516"/>
       <use xlink:href="#DejaVuSans-69" x="575.341797"/>
       <use xlink:href="#DejaVuSans-20" x="603.125"/>
       <use xlink:href="#DejaVuSans-73" x="634.912109"/>
       <use xlink:href="#DejaVuSans-65" x="687.011719"/>
       <use xlink:href="#DejaVuSans-74" x="748.535156"/>
       <use xlink:href="#DejaVuSans-74" x="787.744141"/>
       <use xlink:href="#DejaVuSans-69" x="826.953125"/>
       <use xlink:href="#DejaVuSans-6e" x="854.736328"/>
       <use xlink:href="#DejaVuSans-67" x="918.115234"/>
      </g>
     </g>
    </g>
    <g id="xtick_6">
     <g id="line2d_6">
      <g>
       <use xlink:href="#m637628d453" x="498.862057" y="447.741839" style="stroke: #000000; stroke-width: 0.8"/>
      </g>
     </g>
     <g id="text_6">
      <!-- Farmaci: NRT -->
      <g transform="translate(435.144699 479.010154) rotate(-15) scale(0.1 -0.1)">
       <defs>
        <path id="DejaVuSans-46" d="M 628 4666 
L 3309 4666 
L 3309 4134 
L 1259 4134 
L 1259 2759 
L 3109 2759 
L 3109 2228 
L 1259 2228 
L 1259 0 
L 628 0 
L 628 4666 
z
" transform="scale(0.015625)"/>
        <path id="DejaVuSans-4e" d="M 628 4666 
L 1478 4666 
L 3547 763 
L 3547 4666 
L 4159 4666 
L 4159 0 
L 3309 0 
L 1241 3903 
L 1241 0 
L 628 0 
L 628 4666 
z
" transform="scale(0.015625)"/>
        <path id="DejaVuSans-52" d="M 2841 2188 
Q 3044 2119 3236 1894 
Q 3428 1669 3622 1275 
L 4263 0 
L 3584 0 
L 2988 1197 
Q 2756 1666 2539 1819 
Q 2322 1972 1947 1972 
L 1259 1972 
L 1259 0 
L 628 0 
L 628 4666 
L 2053 4666 
Q 2853 4666 3247 4331 
Q 3641 3997 3641 3322 
Q 3641 2881 3436 2590 
Q 3231 2300 2841 2188 
z
M 1259 4147 
L 1259 2491 
L 2053 2491 
Q 2509 2491 2742 2702 
Q 2975 2913 2975 3322 
Q 2975 3731 2742 3939 
Q 2509 4147 2053 4147 
L 1259 4147 
z
" transform="scale(0.015625)"/>
        <path id="DejaVuSans-54" d="M -19 4666 
L 3928 4666 
L 3928 4134 
L 2272 4134 
L 2272 0 
L 1638 0 
L 1638 4134 
L -19 4134 
L -19 4666 
z
" transform="scale(0.015625)"/>
       </defs>
       <use xlink:href="#DejaVuSans-46"/>
       <use xlink:href="#DejaVuSans-61" x="48.394531"/>
       <use xlink:href="#DejaVuSans-72" x="109.673828"/>
       <use xlink:href="#DejaVuSans-6d" x="149.037109"/>
       <use xlink:href="#DejaVuSans-61" x="246.449219"/>
       <use xlink:href="#DejaVuSans-63" x="307.728516"/>
       <use xlink:href="#DejaVuSans-69" x="362.708984"/>
       <use xlink:href="#DejaVuSans-3a" x="390.492188"/>
       <use xlink:href="#DejaVuSans-20" x="424.183594"/>
       <use xlink:href="#DejaVuSans-4e" x="455.970703"/>
       <use xlink:href="#DejaVuSans-52" x="530.775391"/>
       <use xlink:href="#DejaVuSans-54" x="593.007812"/>
      </g>
     </g>
    </g>
    <g id="xtick_7">
     <g id="line2d_7">
      <g>
       <use xlink:href="#m637628d453" x="576.075862" y="447.741839" style="stroke: #000000; stroke-width: 0.8"/>
      </g>
     </g>
     <g id="text_7">
      <!-- Farmaci: Bupropione -->
      <g transform="translate(476.160433 488.709398) rotate(-15) scale(0.1 -0.1)">
       <defs>
        <path id="DejaVuSans-42" d="M 1259 2228 
L 1259 519 
L 2272 519 
Q 2781 519 3026 730 
Q 3272 941 3272 1375 
Q 3272 1813 3026 2020 
Q 2781 2228 2272 2228 
L 1259 2228 
z
M 1259 4147 
L 1259 2741 
L 2194 2741 
Q 2656 2741 2882 2914 
Q 3109 3088 3109 3444 
Q 3109 3797 2882 3972 
Q 2656 4147 2194 4147 
L 1259 4147 
z
M 628 4666 
L 2241 4666 
Q 2963 4666 3353 4366 
Q 3744 4066 3744 3513 
Q 3744 3084 3544 2831 
Q 3344 2578 2956 2516 
Q 3422 2416 3680 2098 
Q 3938 1781 3938 1306 
Q 3938 681 3513 340 
Q 3088 0 2303 0 
L 628 0 
L 628 4666 
z
" transform="scale(0.015625)"/>
       </defs>
       <use xlink:href="#DejaVuSans-46"/>
       <use xlink:href="#DejaVuSans-61" x="48.394531"/>
       <use xlink:href="#DejaVuSans-72" x="109.673828"/>
       <use xlink:href="#DejaVuSans-6d" x="149.037109"/>
       <use xlink:href="#DejaVuSans-61" x="246.449219"/>
       <use xlink:href="#DejaVuSans-63" x="307.728516"/>
       <use xlink:href="#DejaVuSans-69" x="362.708984"/>
       <use xlink:href="#DejaVuSans-3a" x="390.492188"/>
       <use xlink:href="#DejaVuSans-20" x="424.183594"/>
       <use xlink:href="#DejaVuSans-42" x="455.970703"/>
       <use xlink:href="#DejaVuSans-75" x="524.574219"/>
       <use xlink:href="#DejaVuSans-70" x="587.953125"/>
       <use xlink:href="#DejaVuSans-72" x="651.429688"/>
       <use xlink:href="#DejaVuSans-6f" x="690.292969"/>
       <use xlink:href="#DejaVuSans-70" x="751.474609"/>
       <use xlink:href="#DejaVuSans-69" x="814.951172"/>
       <use xlink:href="#DejaVuSans-6f" x="842.734375"/>
       <use xlink:href="#DejaVuSans-6e" x="903.916016"/>
       <use xlink:href="#DejaVuSans-65" x="967.294922"/>
      </g>
     </g>
    </g>
    <g id="xtick_8">
     <g id="line2d_8">
      <g>
       <use xlink:href="#m637628d453" x="653.289666" y="447.741839" style="stroke: #000000; stroke-width: 0.8"/>
      </g>
     </g>
     <g id="text_8">
      <!-- Farmaci: Vareniclina -->
      <g transform="translate(555.710571 488.083379) rotate(-15) scale(0.1 -0.1)">
       <defs>
        <path id="DejaVuSans-56" d="M 1831 0 
L 50 4666 
L 709 4666 
L 2188 738 
L 3669 4666 
L 4325 4666 
L 2547 0 
L 1831 0 
z
" transform="scale(0.015625)"/>
       </defs>
       <use xlink:href="#DejaVuSans-46"/>
       <use xlink:href="#DejaVuSans-61" x="48.394531"/>
       <use xlink:href="#DejaVuSans-72" x="109.673828"/>
       <use xlink:href="#DejaVuSans-6d" x="149.037109"/>
       <use xlink:href="#DejaVuSans-61" x="246.449219"/>
       <use xlink:href="#DejaVuSans-63" x="307.728516"/>
       <use xlink:href="#DejaVuSans-69" x="362.708984"/>
       <use xlink:href="#DejaVuSans-3a" x="390.492188"/>
       <use xlink:href="#DejaVuSans-20" x="424.183594"/>
       <use xlink:href="#DejaVuSans-56" x="455.970703"/>
       <use xlink:href="#DejaVuSans-61" x="516.628906"/>
       <use xlink:href="#DejaVuSans-72" x="577.908203"/>
       <use xlink:href="#DejaVuSans-65" x="616.771484"/>
       <use xlink:href="#DejaVuSans-6e" x="678.294922"/>
       <use xlink:href="#DejaVuSans-69" x="741.673828"/>
       <use xlink:href="#DejaVuSans-63" x="769.457031"/>
       <use xlink:href="#DejaVuSans-6c" x="824.4375"/>
       <use xlink:href="#DejaVuSans-69" x="852.220703"/>
       <use xlink:href="#DejaVuSans-6e" x="880.003906"/>
       <use xlink:href="#DejaVuSans-61" x="943.382812"/>
      </g>
     </g>
    </g>
    <g id="xtick_9">
     <g id="line2d_9">
      <g>
       <use xlink:href="#m637628d453" x="730.503471" y="447.741839" style="stroke: #000000; stroke-width: 0.8"/>
      </g>
     </g>
     <g id="text_9">
      <!-- Farmaci: Citisina -->
      <g transform="translate(650.268781 483.43596) rotate(-15) scale(0.1 -0.1)">
       <use xlink:href="#DejaVuSans-46"/>
       <use xlink:href="#DejaVuSans-61" x="48.394531"/>
       <use xlink:href="#DejaVuSans-72" x="109.673828"/>
       <use xlink:href="#DejaVuSans-6d" x="149.037109"/>
       <use xlink:href="#DejaVuSans-61" x="246.449219"/>
       <use xlink:href="#DejaVuSans-63" x="307.728516"/>
       <use xlink:href="#DejaVuSans-69" x="362.708984"/>
       <use xlink:href="#DejaVuSans-3a" x="390.492188"/>
       <use xlink:href="#DejaVuSans-20" x="424.183594"/>
       <use xlink:href="#DejaVuSans-43" x="455.970703"/>
       <use xlink:href="#DejaVuSans-69" x="525.794922"/>
       <use xlink:href="#DejaVuSans-74" x="553.578125"/>
       <use xlink:href="#DejaVuSans-69" x="592.787109"/>
       <use xlink:href="#DejaVuSans-73" x="620.570312"/>
       <use xlink:href="#DejaVuSans-69" x="672.669922"/>
       <use xlink:href="#DejaVuSans-6e" x="700.453125"/>
       <use xlink:href="#DejaVuSans-61" x="763.832031"/>
      </g>
     </g>
    </g>
   </g>
   <g id="matplotlib.axis_2">
    <g id="ytick_1">
     <g id="line2d_10">
      <path d="M 47.933438 447.741839 
L 965.233437 447.741839 
" clip-path="url(#p4de8b5cd06)" style="fill: none; stroke: #b0b0b0; stroke-opacity: 0.25; stroke-width: 0.8; stroke-linecap: square"/>
     </g>
     <g id="line2d_11">
      <defs>
       <path id="ma23fc04625" d="M 0 0 
L -3.5 0 
" style="stroke: #000000; stroke-width: 0.8"/>
      </defs>
      <g>
       <use xlink:href="#ma23fc04625" x="47.933438" y="447.741839" style="stroke: #000000; stroke-width: 0.8"/>
      </g>
     </g>
     <g id="text_10">
      <!-- 0 -->
      <g transform="translate(34.570937 451.541058) scale(0.1 -0.1)">
       <defs>
        <path id="DejaVuSans-30" d="M 2034 4250 
Q 1547 4250 1301 3770 
Q 1056 3291 1056 2328 
Q 1056 1369 1301 889 
Q 1547 409 2034 409 
Q 2525 409 2770 889 
Q 3016 1369 3016 2328 
Q 3016 3291 2770 3770 
Q 2525 4250 2034 4250 
z
M 2034 4750 
Q 2819 4750 3233 4129 
Q 3647 3509 3647 2328 
Q 3647 1150 3233 529 
Q 2819 -91 2034 -91 
Q 1250 -91 836 529 
Q 422 1150 422 2328 
Q 422 3509 836 4129 
Q 1250 4750 2034 4750 
z
" transform="scale(0.015625)"/>
       </defs>
       <use xlink:href="#DejaVuSans-30"/>
      </g>
     </g>
    </g>
    <g id="ytick_2">
     <g id="line2d_12">
      <path d="M 47.933438 377.601471 
L 965.233437 377.601471 
" clip-path="url(#p4de8b5cd06)" style="fill: none; stroke: #b0b0b0; stroke-opacity: 0.25; stroke-width: 0.8; stroke-linecap: square"/>
     </g>
     <g id="line2d_13">
      <g>
       <use xlink:href="#ma23fc04625" x="47.933438" y="377.601471" style="stroke: #000000; stroke-width: 0.8"/>
      </g>
     </g>
     <g id="text_11">
      <!-- 20 -->
      <g transform="translate(28.208438 381.40069) scale(0.1 -0.1)">
       <defs>
        <path id="DejaVuSans-32" d="M 1228 531 
L 3431 531 
L 3431 0 
L 469 0 
L 469 531 
Q 828 903 1448 1529 
Q 2069 2156 2228 2338 
Q 2531 2678 2651 2914 
Q 2772 3150 2772 3378 
Q 2772 3750 2511 3984 
Q 2250 4219 1831 4219 
Q 1534 4219 1204 4116 
Q 875 4013 500 3803 
L 500 4441 
Q 881 4594 1212 4672 
Q 1544 4750 1819 4750 
Q 2544 4750 2975 4387 
Q 3406 4025 3406 3419 
Q 3406 3131 3298 2873 
Q 3191 2616 2906 2266 
Q 2828 2175 2409 1742 
Q 1991 1309 1228 531 
z
" transform="scale(0.015625)"/>
       </defs>
       <use xlink:href="#DejaVuSans-32"/>
       <use xlink:href="#DejaVuSans-30" x="63.623047"/>
      </g>
     </g>
    </g>
    <g id="ytick_3">
     <g id="line2d_14">
      <path d="M 47.933438 307.461104 
L 965.233437 307.461104 
" clip-path="url(#p4de8b5cd06)" style="fill: none; stroke: #b0b0b0; stroke-opacity: 0.25; stroke-width: 0.8; stroke-linecap: square"/>
     </g>
     <g id="line2d_15">
      <g>
       <use xlink:href="#ma23fc04625" x="47.933438" y="307.461104" style="stroke: #000000; stroke-width: 0.8"/>
      </g>
     </g>
     <g id="text_12">
      <!-- 40 -->
      <g transform="translate(28.208438 311.260322) scale(0.1 -0.1)">
       <defs>
        <path id="DejaVuSans-34" d="M 2419 4116 
L 825 1625 
L 2419 1625 
L 2419 4116 
z
M 2253 4666 
L 3047 4666 
L 3047 1625 
L 3713 1625 
L 3713 1100 
L 3047 1100 
L 3047 0 
L 2419 0 
L 2419 1100 
L 313 1100 
L 313 1709 
L 2253 4666 
z
" transform="scale(0.015625)"/>
       </defs>
       <use xlink:href="#DejaVuSans-34"/>
       <use xlink:href="#DejaVuSans-30" x="63.623047"/>
      </g>
     </g>
    </g>
    <g id="ytick_4">
     <g id="line2d_16">
      <path d="M 47.933438 237.320736 
L 965.233437 237.320736 
" clip-path="url(#p4de8b5cd06)" style="fill: none; stroke: #b0b0b0; stroke-opacity: 0.25; stroke-width: 0.8; stroke-linecap: square"/>
     </g>
     <g id="line2d_17">
      <g>
       <use xlink:href="#ma23fc04625" x="47.933438" y="237.320736" style="stroke: #000000; stroke-width: 0.8"/>
      </g>
     </g>
     <g id="text_13">
      <!-- 60 -->
      <g transform="translate(28.208438 241.119954) scale(0.1 -0.1)">
       <defs>
        <path id="DejaVuSans-36" d="M 2113 2584 
Q 1688 2584 1439 2293 
Q 1191 2003 1191 1497 
Q 1191 994 1439 701 
Q 1688 409 2113 409 
Q 2538 409 2786 701 
Q 3034 994 3034 1497 
Q 3034 2003 2786 2293 
Q 2538 2584 2113 2584 
z
M 3366 4563 
L 3366 3988 
Q 3128 4100 2886 4159 
Q 2644 4219 2406 4219 
Q 1781 4219 1451 3797 
Q 1122 3375 1075 2522 
Q 1259 2794 1537 2939 
Q 1816 3084 2150 3084 
Q 2853 3084 3261 2657 
Q 3669 2231 3669 1497 
Q 3669 778 3244 343 
Q 2819 -91 2113 -91 
Q 1303 -91 875 529 
Q 447 1150 447 2328 
Q 447 3434 972 4092 
Q 1497 4750 2381 4750 
Q 2619 4750 2861 4703 
Q 3103 4656 3366 4563 
z
" transform="scale(0.015625)"/>
       </defs>
       <use xlink:href="#DejaVuSans-36"/>
       <use xlink:href="#DejaVuSans-30" x="63.623047"/>
      </g>
     </g>
    </g>
    <g id="ytick_5">
     <g id="line2d_18">
      <path d="M 47.933438 167.180368 
L 965.233437 167.180368 
" clip-path="url(#p4de8b5cd06)" style="fill: none; stroke: #b0b0b0; stroke-opacity: 0.25; stroke-width: 0.8; stroke-linecap: square"/>
     </g>
     <g id="line2d_19">
      <g>
       <use xlink:href="#ma23fc04625" x="47.933438" y="167.180368" style="stroke: #000000; stroke-width: 0.8"/>
      </g>
     </g>
     <g id="text_14">
      <!-- 80 -->
      <g transform="translate(28.208438 170.979587) scale(0.1 -0.1)">
       <defs>
        <path id="DejaVuSans-38" d="M 2034 2216 
Q 1584 2216 1326 1975 
Q 1069 1734 1069 1313 
Q 1069 891 1326 650 
Q 1584 409 2034 409 
Q 2484 409 2743 651 
Q 3003 894 3003 1313 
Q 3003 1734 2745 1975 
Q 2488 2216 2034 2216 
z
M 1403 2484 
Q 997 2584 770 2862 
Q 544 3141 544 3541 
Q 544 4100 942 4425 
Q 1341 4750 2034 4750 
Q 2731 4750 3128 4425 
Q 3525 4100 3525 3541 
Q 3525 3141 3298 2862 
Q 3072 2584 2669 2484 
Q 3125 2378 3379 2068 
Q 3634 1759 3634 1313 
Q 3634 634 3220 271 
Q 2806 -91 2034 -91 
Q 1263 -91 848 271 
Q 434 634 434 1313 
Q 434 1759 690 2068 
Q 947 2378 1403 2484 
z
M 1172 3481 
Q 1172 3119 1398 2916 
Q 1625 2713 2034 2713 
Q 2441 2713 2670 2916 
Q 2900 3119 2900 3481 
Q 2900 3844 2670 4047 
Q 2441 4250 2034 4250 
Q 1625 4250 1398 4047 
Q 1172 3844 1172 3481 
z
" transform="scale(0.015625)"/>
       </defs>
       <use xlink:href="#DejaVuSans-38"/>
       <use xlink:href="#DejaVuSans-30" x="63.623047"/>
      </g>
     </g>
    </g>
    <g id="ytick_6">
     <g id="line2d_20">
      <path d="M 47.933438 97.04 
L 965.233437 97.04 
" clip-path="url(#p4de8b5cd06)" style="fill: none; stroke: #b0b0b0; stroke-opacity: 0.25; stroke-width: 0.8; stroke-linecap: square"/>
     </g>
     <g id="line2d_21">
      <g>
       <use xlink:href="#ma23fc04625" x="47.933438" y="97.04" style="stroke: #000000; stroke-width: 0.8"/>
      </g>
     </g>
     <g id="text_15">
      <!-- 100 -->
      <g transform="translate(21.845938 100.839219) scale(0.1 -0.1)">
       <defs>
        <path id="DejaVuSans-31" d="M 794 531 
L 1825 531 
L 1825 4091 
L 703 3866 
L 703 4441 
L 1819 4666 
L 2450 4666 
L 2450 531 
L 3481 531 
L 3481 0 
L 794 0 
L 794 531 
z
" transform="scale(0.015625)"/>
       </defs>
       <use xlink:href="#DejaVuSans-31"/>
       <use xlink:href="#DejaVuSans-30" x="63.623047"/>
       <use xlink:href="#DejaVuSans-30" x="127.246094"/>
      </g>
     </g>
    </g>
    <g id="text_16">
     <!-- % Paesi -->
     <g transform="translate(15.558281 293.581388) rotate(-90) scale(0.11 -0.11)">
      <defs>
       <path id="DejaVuSans-25" d="M 4653 2053 
Q 4381 2053 4226 1822 
Q 4072 1591 4072 1178 
Q 4072 772 4226 539 
Q 4381 306 4653 306 
Q 4919 306 5073 539 
Q 5228 772 5228 1178 
Q 5228 1588 5073 1820 
Q 4919 2053 4653 2053 
z
M 4653 2450 
Q 5147 2450 5437 2106 
Q 5728 1763 5728 1178 
Q 5728 594 5436 251 
Q 5144 -91 4653 -91 
Q 4153 -91 3862 251 
Q 3572 594 3572 1178 
Q 3572 1766 3864 2108 
Q 4156 2450 4653 2450 
z
M 1428 4353 
Q 1159 4353 1004 4120 
Q 850 3888 850 3481 
Q 850 3069 1003 2837 
Q 1156 2606 1428 2606 
Q 1700 2606 1854 2837 
Q 2009 3069 2009 3481 
Q 2009 3884 1853 4118 
Q 1697 4353 1428 4353 
z
M 4250 4750 
L 4750 4750 
L 1831 -91 
L 1331 -91 
L 4250 4750 
z
M 1428 4750 
Q 1922 4750 2215 4408 
Q 2509 4066 2509 3481 
Q 2509 2891 2217 2550 
Q 1925 2209 1428 2209 
Q 931 2209 642 2551 
Q 353 2894 353 3481 
Q 353 4063 643 4406 
Q 934 4750 1428 4750 
z
" transform="scale(0.015625)"/>
      </defs>
      <use xlink:href="#DejaVuSans-25"/>
      <use xlink:href="#DejaVuSans-20" x="95.019531"/>
      <use xlink:href="#DejaVuSans-50" x="126.806641"/>
      <use xlink:href="#DejaVuSans-61" x="182.609375"/>
      <use xlink:href="#DejaVuSans-65" x="243.888672"/>
      <use xlink:href="#DejaVuSans-73" x="305.412109"/>
      <use xlink:href="#DejaVuSans-69" x="357.511719"/>
     </g>
    </g>
   </g>
   <g id="line2d_22">
    <path d="M 112.793033 306.738007 
L 865.627629 439.908293 
" clip-path="url(#p4de8b5cd06)" style="fill: none; stroke: #555555; stroke-opacity: 0.7; stroke-width: 0.8; stroke-linecap: square"/>
   </g>
   <g id="line2d_23">
    <path d="M 190.006838 229.688882 
L 865.627629 424.654889 
" clip-path="url(#p4de8b5cd06)" style="fill: none; stroke: #555555; stroke-opacity: 0.7; stroke-width: 0.8; stroke-linecap: square"/>
   </g>
   <g id="line2d_24">
    <path d="M 267.220643 263.352212 
L 865.627629 411.108797 
" clip-path="url(#p4de8b5cd06)" style="fill: none; stroke: #555555; stroke-opacity: 0.7; stroke-width: 0.8; stroke-linecap: square"/>
   </g>
   <g id="line2d_25">
    <path d="M 344.434448 293.587185 
L 865.627629 400.165229 
" clip-path="url(#p4de8b5cd06)" style="fill: none; stroke: #555555; stroke-opacity: 0.7; stroke-width: 0.8; stroke-linecap: square"/>
   </g>
   <g id="line2d_26">
    <path d="M 421.648252 272.39092 
L 865.627629 390.274085 
" clip-path="url(#p4de8b5cd06)" style="fill: none; stroke: #555555; stroke-opacity: 0.7; stroke-width: 0.8; stroke-linecap: square"/>
   </g>
   <g id="line2d_27">
    <path d="M 498.862057 223.21844 
L 865.627629 372.726751 
" clip-path="url(#p4de8b5cd06)" style="fill: none; stroke: #555555; stroke-opacity: 0.7; stroke-width: 0.8; stroke-linecap: square"/>
   </g>
   <g id="line2d_28">
    <path d="M 576.075862 281.429627 
L 865.627629 351.013662 
" clip-path="url(#p4de8b5cd06)" style="fill: none; stroke: #555555; stroke-opacity: 0.7; stroke-width: 0.8; stroke-linecap: square"/>
   </g>
   <g id="line2d_29">
    <path d="M 653.289666 279.621885 
L 865.627629 332.434097 
" clip-path="url(#p4de8b5cd06)" style="fill: none; stroke: #555555; stroke-opacity: 0.7; stroke-width: 0.8; stroke-linecap: square"/>
   </g>
   <g id="line2d_30">
    <path d="M 730.503471 397.32845 
L 865.627629 320.293355 
" clip-path="url(#p4de8b5cd06)" style="fill: none; stroke: #555555; stroke-opacity: 0.7; stroke-width: 0.8; stroke-linecap: square"/>
   </g>
   <g id="patch_30">
    <path d="M 47.933438 447.741839 
L 47.933438 97.04 
" style="fill: none; stroke: #000000; stroke-width: 0.8; stroke-linejoin: miter; stroke-linecap: square"/>
   </g>
   <g id="patch_31">
    <path d="M 965.233437 447.741839 
L 965.233437 97.04 
" style="fill: none; stroke: #000000; stroke-width: 0.8; stroke-linejoin: miter; stroke-linecap: square"/>
   </g>
   <g id="patch_32">
    <path d="M 47.933437 447.741839 
L 965.233438 447.741839 
" style="fill: none; stroke: #000000; stroke-width: 0.8; stroke-linejoin: miter; stroke-linecap: square"/>
   </g>
   <g id="patch_33">
    <path d="M 47.933437 97.04 
L 965.233438 97.04 
" style="fill: none; stroke: #000000; stroke-width: 0.8; stroke-linejoin: miter; stroke-linecap: square"/>
   </g>
   <g id="text_17">
    <!-- 40% -->
    <g transform="translate(102.79108 299.605761) scale(0.09 -0.09)">
     <use xlink:href="#DejaVuSans-34"/>
     <use xlink:href="#DejaVuSans-30" x="63.623047"/>
     <use xlink:href="#DejaVuSans-25" x="127.246094"/>
    </g>
   </g>
   <g id="text_18">
    <!-- 14% -->
    <g transform="translate(180.004885 391.547678) scale(0.09 -0.09)">
     <use xlink:href="#DejaVuSans-31"/>
     <use xlink:href="#DejaVuSans-34" x="63.623047"/>
     <use xlink:href="#DejaVuSans-25" x="127.246094"/>
    </g>
   </g>
   <g id="text_19">
    <!-- 62% -->
    <g style="fill: #333333" transform="translate(180.004885 222.556636) scale(0.09 -0.09)">
     <use xlink:href="#DejaVuSans-36"/>
     <use xlink:href="#DejaVuSans-32" x="63.623047"/>
     <use xlink:href="#DejaVuSans-25" x="127.246094"/>
    </g>
   </g>
   <g id="text_20">
    <!-- 10% -->
    <g transform="translate(257.21869 404.454764) scale(0.09 -0.09)">
     <use xlink:href="#DejaVuSans-31"/>
     <use xlink:href="#DejaVuSans-30" x="63.623047"/>
     <use xlink:href="#DejaVuSans-25" x="127.246094"/>
    </g>
   </g>
   <g id="text_21">
    <!-- 53% -->
    <g style="fill: #333333" transform="translate(257.21869 256.219966) scale(0.09 -0.09)">
     <defs>
      <path id="DejaVuSans-35" d="M 691 4666 
L 3169 4666 
L 3169 4134 
L 1269 4134 
L 1269 2991 
Q 1406 3038 1543 3061 
Q 1681 3084 1819 3084 
Q 2600 3084 3056 2656 
Q 3513 2228 3513 1497 
Q 3513 744 3044 326 
Q 2575 -91 1722 -91 
Q 1428 -91 1123 -41 
Q 819 9 494 109 
L 494 744 
Q 775 591 1075 516 
Q 1375 441 1709 441 
Q 2250 441 2565 725 
Q 2881 1009 2881 1497 
Q 2881 1984 2565 2268 
Q 2250 2553 1709 2553 
Q 1456 2553 1204 2497 
Q 953 2441 691 2322 
L 691 4666 
z
" transform="scale(0.015625)"/>
      <path id="DejaVuSans-33" d="M 2597 2516 
Q 3050 2419 3304 2112 
Q 3559 1806 3559 1356 
Q 3559 666 3084 287 
Q 2609 -91 1734 -91 
Q 1441 -91 1130 -33 
Q 819 25 488 141 
L 488 750 
Q 750 597 1062 519 
Q 1375 441 1716 441 
Q 2309 441 2620 675 
Q 2931 909 2931 1356 
Q 2931 1769 2642 2001 
Q 2353 2234 1838 2234 
L 1294 2234 
L 1294 2753 
L 1863 2753 
Q 2328 2753 2575 2939 
Q 2822 3125 2822 3475 
Q 2822 3834 2567 4026 
Q 2313 4219 1838 4219 
Q 1578 4219 1281 4162 
Q 984 4106 628 3988 
L 628 4550 
Q 988 4650 1302 4700 
Q 1616 4750 1894 4750 
Q 2613 4750 3031 4423 
Q 3450 4097 3450 3541 
Q 3450 3153 3228 2886 
Q 3006 2619 2597 2516 
z
" transform="scale(0.015625)"/>
     </defs>
     <use xlink:href="#DejaVuSans-35"/>
     <use xlink:href="#DejaVuSans-33" x="63.623047"/>
     <use xlink:href="#DejaVuSans-25" x="127.246094"/>
    </g>
   </g>
   <g id="text_22">
    <!-- 5% -->
    <g transform="translate(337.295619 421.340261) scale(0.09 -0.09)">
     <use xlink:href="#DejaVuSans-35"/>
     <use xlink:href="#DejaVuSans-25" x="63.623047"/>
    </g>
   </g>
   <g id="text_23">
    <!-- 44% -->
    <g style="fill: #333333" transform="translate(334.432494 286.454938) scale(0.09 -0.09)">
     <use xlink:href="#DejaVuSans-34"/>
     <use xlink:href="#DejaVuSans-34" x="63.623047"/>
     <use xlink:href="#DejaVuSans-25" x="127.246094"/>
    </g>
   </g>
   <g id="text_24">
    <!-- 2% -->
    <g transform="translate(414.509424 433.303305) scale(0.09 -0.09)">
     <use xlink:href="#DejaVuSans-32"/>
     <use xlink:href="#DejaVuSans-25" x="63.623047"/>
    </g>
   </g>
   <g id="text_25">
    <!-- 50% -->
    <g style="fill: #333333" transform="translate(411.646299 265.258673) scale(0.09 -0.09)">
     <use xlink:href="#DejaVuSans-35"/>
     <use xlink:href="#DejaVuSans-30" x="63.623047"/>
     <use xlink:href="#DejaVuSans-25" x="127.246094"/>
    </g>
   </g>
   <g id="text_26">
    <!-- 64% -->
    <g transform="translate(488.860104 216.086193) scale(0.09 -0.09)">
     <use xlink:href="#DejaVuSans-36"/>
     <use xlink:href="#DejaVuSans-34" x="63.623047"/>
     <use xlink:href="#DejaVuSans-25" x="127.246094"/>
    </g>
   </g>
   <g id="text_27">
    <!-- 47% -->
    <g transform="translate(566.073909 274.29738) scale(0.09 -0.09)">
     <defs>
      <path id="DejaVuSans-37" d="M 525 4666 
L 3525 4666 
L 3525 4397 
L 1831 0 
L 1172 0 
L 2766 4134 
L 525 4134 
L 525 4666 
z
" transform="scale(0.015625)"/>
     </defs>
     <use xlink:href="#DejaVuSans-34"/>
     <use xlink:href="#DejaVuSans-37" x="63.623047"/>
     <use xlink:href="#DejaVuSans-25" x="127.246094"/>
    </g>
   </g>
   <g id="text_28">
    <!-- 48% -->
    <g transform="translate(643.287713 272.489639) scale(0.09 -0.09)">
     <use xlink:href="#DejaVuSans-34"/>
     <use xlink:href="#DejaVuSans-38" x="63.623047"/>
     <use xlink:href="#DejaVuSans-25" x="127.246094"/>
    </g>
   </g>
   <g id="text_29">
    <!-- 14% -->
    <g transform="translate(720.501518 390.196204) scale(0.09 -0.09)">
     <use xlink:href="#DejaVuSans-31"/>
     <use xlink:href="#DejaVuSans-34" x="63.623047"/>
     <use xlink:href="#DejaVuSans-25" x="127.246094"/>
    </g>
   </g>
   <g id="text_30">
    <!-- Indice O medio -->
    <g transform="translate(858.885795 292.366306) scale(0.11 -0.11)">
     <defs>
      <path id="DejaVuSans-49" d="M 628 4666 
L 1259 4666 
L 1259 0 
L 628 0 
L 628 4666 
z
" transform="scale(0.015625)"/>
     </defs>
     <use xlink:href="#DejaVuSans-49"/>
     <use xlink:href="#DejaVuSans-6e" x="29.492188"/>
     <use xlink:href="#DejaVuSans-64" x="92.871094"/>
     <use xlink:href="#DejaVuSans-69" x="156.347656"/>
     <use xlink:href="#DejaVuSans-63" x="184.130859"/>
     <use xlink:href="#DejaVuSans-65" x="239.111328"/>
     <use xlink:href="#DejaVuSans-20" x="300.634766"/>
     <use xlink:href="#DejaVuSans-4f" x="332.421875"/>
     <use xlink:href="#DejaVuSans-20" x="411.132812"/>
     <use xlink:href="#DejaVuSans-6d" x="442.919922"/>
     <use xlink:href="#DejaVuSans-65" x="540.332031"/>
     <use xlink:href="#DejaVuSans-64" x="601.855469"/>
     <use xlink:href="#DejaVuSans-69" x="665.332031"/>
     <use xlink:href="#DejaVuSans-6f" x="693.115234"/>
    </g>
    <!-- 3.3 / 9 -->
    <g transform="translate(882.778998 304.6839) scale(0.11 -0.11)">
     <defs>
      <path id="DejaVuSans-2e" d="M 684 794 
L 1344 794 
L 1344 0 
L 684 0 
L 684 794 
z
" transform="scale(0.015625)"/>
      <path id="DejaVuSans-2f" d="M 1625 4666 
L 2156 4666 
L 531 -594 
L 0 -594 
L 1625 4666 
z
" transform="scale(0.015625)"/>
      <path id="DejaVuSans-39" d="M 703 97 
L 703 672 
Q 941 559 1184 500 
Q 1428 441 1663 441 
Q 2288 441 2617 861 
Q 2947 1281 2994 2138 
Q 2813 1869 2534 1725 
Q 2256 1581 1919 1581 
Q 1219 1581 811 2004 
Q 403 2428 403 3163 
Q 403 3881 828 4315 
Q 1253 4750 1959 4750 
Q 2769 4750 3195 4129 
Q 3622 3509 3622 2328 
Q 3622 1225 3098 567 
Q 2575 -91 1691 -91 
Q 1453 -91 1209 -44 
Q 966 3 703 97 
z
M 1959 2075 
Q 2384 2075 2632 2365 
Q 2881 2656 2881 3163 
Q 2881 3666 2632 3958 
Q 2384 4250 1959 4250 
Q 1534 4250 1286 3958 
Q 1038 3666 1038 3163 
Q 1038 2656 1286 2365 
Q 1534 2075 1959 2075 
z
" transform="scale(0.015625)"/>
     </defs>
     <use xlink:href="#DejaVuSans-33"/>
     <use xlink:href="#DejaVuSans-2e" x="63.623047"/>
     <use xlink:href="#DejaVuSans-33" x="95.410156"/>
     <use xlink:href="#DejaVuSans-20" x="159.033203"/>
     <use xlink:href="#DejaVuSans-2f" x="190.820312"/>
     <use xlink:href="#DejaVuSans-20" x="224.511719"/>
     <use xlink:href="#DejaVuSans-39" x="256.298828"/>
    </g>
   </g>
   <g id="text_31">
    <!-- Barre a sinistra: quota Paesi con copertura piena (pieno) e parziale (tratteggio), ultimo dato ≤ 2022. -->
    <g transform="translate(47.933438 77.842188) scale(0.1 -0.1)">
     <defs>
      <path id="DejaVuSans-71" d="M 947 1747 
Q 947 1113 1208 752 
Q 1469 391 1925 391 
Q 2381 391 2643 752 
Q 2906 1113 2906 1747 
Q 2906 2381 2643 2742 
Q 2381 3103 1925 3103 
Q 1469 3103 1208 2742 
Q 947 2381 947 1747 
z
M 2906 525 
Q 2725 213 2448 61 
Q 2172 -91 1784 -91 
Q 1150 -91 751 415 
Q 353 922 353 1747 
Q 353 2572 751 3078 
Q 1150 3584 1784 3584 
Q 2172 3584 2448 3432 
Q 2725 3281 2906 2969 
L 2906 3500 
L 3481 3500 
L 3481 -1331 
L 2906 -1331 
L 2906 525 
z
" transform="scale(0.015625)"/>
      <path id="DejaVuSans-28" d="M 1984 4856 
Q 1566 4138 1362 3434 
Q 1159 2731 1159 2009 
Q 1159 1288 1364 580 
Q 1569 -128 1984 -844 
L 1484 -844 
Q 1016 -109 783 600 
Q 550 1309 550 2009 
Q 550 2706 781 3412 
Q 1013 4119 1484 4856 
L 1984 4856 
z
" transform="scale(0.015625)"/>
      <path id="DejaVuSans-29" d="M 513 4856 
L 1013 4856 
Q 1481 4119 1714 3412 
Q 1947 2706 1947 2009 
Q 1947 1309 1714 600 
Q 1481 -109 1013 -844 
L 513 -844 
Q 928 -128 1133 580 
Q 1338 1288 1338 2009 
Q 1338 2731 1133 3434 
Q 928 4138 513 4856 
z
" transform="scale(0.015625)"/>
      <path id="DejaVuSans-2c" d="M 750 794 
L 1409 794 
L 1409 256 
L 897 -744 
L 494 -744 
L 750 256 
L 750 794 
z
" transform="scale(0.015625)"/>
      <path id="DejaVuSans-2264" d="M 4684 3175 
L 1684 2309 
L 4684 1453 
L 4684 897 
L 678 2047 
L 678 2578 
L 4684 3725 
L 4684 3175 
z
M 678 531 
L 4684 531 
L 4684 0 
L 678 0 
L 678 531 
z
" transform="scale(0.015625)"/>
     </defs>
     <use xlink:href="#DejaVuSans-42"/>
     <use xlink:href="#DejaVuSans-61" x="68.603516"/>
     <use xlink:href="#DejaVuSans-72" x="129.882812"/>
     <use xlink:href="#DejaVuSans-72" x="169.246094"/>
     <use xlink:href="#DejaVuSans-65" x="208.109375"/>
     <use xlink:href="#DejaVuSans-20" x="269.632812"/>
     <use xlink:href="#DejaVuSans-61" x="301.419922"/>
     <use xlink:href="#DejaVuSans-20" x="362.699219"/>
     <use xlink:href="#DejaVuSans-73" x="394.486328"/>
     <use xlink:href="#DejaVuSans-69" x="446.585938"/>
     <use xlink:href="#DejaVuSans-6e" x="474.369141"/>
     <use xlink:href="#DejaVuSans-69" x="537.748047"/>
     <use xlink:href="#DejaVuSans-73" x="565.53125"/>
     <use xlink:href="#DejaVuSans-74" x="617.630859"/>
     <use xlink:href="#DejaVuSans-72" x="656.839844"/>
     <use xlink:href="#DejaVuSans-61" x="697.953125"/>
     <use xlink:href="#DejaVuSans-3a" x="759.232422"/>
     <use xlink:href="#DejaVuSans-20" x="792.923828"/>
     <use xlink:href="#DejaVuSans-71" x="824.710938"/>
     <use xlink:href="#DejaVuSans-75" x="888.1875"/>
     <use xlink:href="#DejaVuSans-6f" x="951.566406"/>
     <use xlink:href="#DejaVuSans-74" x="1012.748047"/>
     <use xlink:href="#DejaVuSans-61" x="1051.957031"/>
     <use xlink:href="#DejaVuSans-20" x="1113.236328"/>
     <use xlink:href="#DejaVuSans-50" x="1145.023438"/>
     <use xlink:href="#DejaVuSans-61" x="1200.826172"/>
     <use xlink:href="#DejaVuSans-65" x="1262.105469"/>
     <use xlink:href="#DejaVuSans-73" x="1323.628906"/>
     <use xlink:href="#DejaVuSans-69" x="1375.728516"/>
     <use xlink:href="#DejaVuSans-20" x="1403.511719"/>
     <use xlink:href="#DejaVuSans-63" x="1435.298828"/>
     <use xlink:href="#DejaVuSans-6f" x="1490.279297"/>
     <use xlink:href="#DejaVuSans-6e" x="1551.460938"/>
     <use xlink:href="#DejaVuSans-20" x="1614.839844"/>
     <use xlink:href="#DejaVuSans-63" x="1646.626953"/>
     <use xlink:href="#DejaVuSans-6f" x="1701.607422"/>
     <use xlink:href="#DejaVuSans-70" x="1762.789062"/>
     <use xlink:href="#DejaVuSans-65" x="1826.265625"/>
     <use xlink:href="#DejaVuSans-72" x="1887.789062"/>
     <use xlink:href="#DejaVuSans-74" x="1928.902344"/>
     <use xlink:href="#DejaVuSans-75" x="1968.111328"/>
     <use xlink:href="#DejaVuSans-72" x="2031.490234"/>
     <use xlink:href="#DejaVuSans-61" x="2072.603516"/>
     <use xlink:href="#DejaVuSans-20" x="2133.882812"/>
     <use xlink:href="#DejaVuSans-70" x="2165.669922"/>
     <use xlink:href="#DejaVuSans-69" x="2229.146484"/>
     <use xlink:href="#DejaVuSans-65" x="2256.929688"/>
     <use xlink:href="#DejaVuSans-6e" x="2318.453125"/>
     <use xlink:href="#DejaVuSans-61" x="2381.832031"/>
     <use xlink:href="#DejaVuSans-20" x="2443.111328"/>
     <use xlink:href="#DejaVuSans-28" x="2474.898438"/>
     <use xlink:href="#DejaVuSans-70" x="2513.912109"/>
     <use xlink:href="#DejaVuSans-69" x="2577.388672"/>
     <use xlink:href="#DejaVuSans-65" x="2605.171875"/>
     <use xlink:href="#DejaVuSans-6e" x="2666.695312"/>
     <use xlink:href="#DejaVuSans-6f" x="2730.074219"/>
     <use xlink:href="#DejaVuSans-29" x="2791.255859"/>
     <use xlink:href="#DejaVuSans-20" x="2830.269531"/>
     <use xlink:href="#DejaVuSans-65" x="2862.056641"/>
     <use xlink:href="#DejaVuSans-20" x="2923.580078"/>
     <use xlink:href="#DejaVuSans-70" x="2955.367188"/>
     <use xlink:href="#DejaVuSans-61" x="3018.84375"/>
     <use xlink:href="#DejaVuSans-72" x="3080.123047"/>
     <use xlink:href="#DejaVuSans-7a" x="3121.236328"/>
     <use xlink:href="#DejaVuSans-69" x="3173.726562"/>
     <use xlink:href="#DejaVuSans-61" x="3201.509766"/>
     <use xlink:href="#DejaVuSans-6c" x="3262.789062"/>
     <use xlink:href="#DejaVuSans-65" x="3290.572266"/>
     <use xlink:href="#DejaVuSans-20" x="3352.095703"/>
     <use xlink:href="#DejaVuSans-28" x="3383.882812"/>
     <use xlink:href="#DejaVuSans-74" x="3422.896484"/>
     <use xlink:href="#DejaVuSans-72" x="3462.105469"/>
     <use xlink:href="#DejaVuSans-61" x="3503.21875"/>
     <use xlink:href="#DejaVuSans-74" x="3564.498047"/>
     <use xlink:href="#DejaVuSans-74" x="3603.707031"/>
     <use xlink:href="#DejaVuSans-65" x="3642.916016"/>
     <use xlink:href="#DejaVuSans-67" x="3704.439453"/>
     <use xlink:href="#DejaVuSans-67" x="3767.916016"/>
     <use xlink:href="#DejaVuSans-69" x="3831.392578"/>
     <use xlink:href="#DejaVuSans-6f" x="3859.175781"/>
     <use xlink:href="#DejaVuSans-29" x="3920.357422"/>
     <use xlink:href="#DejaVuSans-2c" x="3959.371094"/>
     <use xlink:href="#DejaVuSans-20" x="3991.158203"/>
     <use xlink:href="#DejaVuSans-75" x="4022.945312"/>
     <use xlink:href="#DejaVuSans-6c" x="4086.324219"/>
     <use xlink:href="#DejaVuSans-74" x="4114.107422"/>
     <use xlink:href="#DejaVuSans-69" x="4153.316406"/>
     <use xlink:href="#DejaVuSans-6d" x="4181.099609"/>
     <use xlink:href="#DejaVuSans-6f" x="4278.511719"/>
     <use xlink:href="#DejaVuSans-20" x="4339.693359"/>
     <use xlink:href="#DejaVuSans-64" x="4371.480469"/>
     <use xlink:href="#DejaVuSans-61" x="4434.957031"/>
     <use xlink:href="#DejaVuSans-74" x="4496.236328"/>
     <use xlink:href="#DejaVuSans-6f" x="4535.445312"/>
     <use xlink:href="#DejaVuSans-20" x="4596.626953"/>
     <use xlink:href="#DejaVuSans-2264" x="4628.414062"/>
     <use xlink:href="#DejaVuSans-20" x="4712.203125"/>
     <use xlink:href="#DejaVuSans-32" x="4743.990234"/>
     <use xlink:href="#DejaVuSans-30" x="4807.613281"/>
     <use xlink:href="#DejaVuSans-32" x="4871.236328"/>
     <use xlink:href="#DejaVuSans-32" x="4934.859375"/>
     <use xlink:href="#DejaVuSans-2e" x="4998.482422"/>
    </g>
    <!-- Barra a destra: Indice O medio = 3.3 / 9, scomposto nei contributi medi delle 9 componenti. -->
    <g transform="translate(47.933438 89.04) scale(0.1 -0.1)">
     <defs>
      <path id="DejaVuSans-3d" d="M 678 2906 
L 4684 2906 
L 4684 2381 
L 678 2381 
L 678 2906 
z
M 678 1631 
L 4684 1631 
L 4684 1100 
L 678 1100 
L 678 1631 
z
" transform="scale(0.015625)"/>
      <path id="DejaVuSans-62" d="M 3116 1747 
Q 3116 2381 2855 2742 
Q 2594 3103 2138 3103 
Q 1681 3103 1420 2742 
Q 1159 2381 1159 1747 
Q 1159 1113 1420 752 
Q 1681 391 2138 391 
Q 2594 391 2855 752 
Q 3116 1113 3116 1747 
z
M 1159 2969 
Q 1341 3281 1617 3432 
Q 1894 3584 2278 3584 
Q 2916 3584 3314 3078 
Q 3713 2572 3713 1747 
Q 3713 922 3314 415 
Q 2916 -91 2278 -91 
Q 1894 -91 1617 61 
Q 1341 213 1159 525 
L 1159 0 
L 581 0 
L 581 4863 
L 1159 4863 
L 1159 2969 
z
" transform="scale(0.015625)"/>
     </defs>
     <use xlink:href="#DejaVuSans-42"/>
     <use xlink:href="#DejaVuSans-61" x="68.603516"/>
     <use xlink:href="#DejaVuSans-72" x="129.882812"/>
     <use xlink:href="#DejaVuSans-72" x="169.246094"/>
     <use xlink:href="#DejaVuSans-61" x="210.359375"/>
     <use xlink:href="#DejaVuSans-20" x="271.638672"/>
     <use xlink:href="#DejaVuSans-61" x="303.425781"/>
     <use xlink:href="#DejaVuSans-20" x="364.705078"/>
     <use xlink:href="#DejaVuSans-64" x="396.492188"/>
     <use xlink:href="#DejaVuSans-65" x="459.96875"/>
     <use xlink:href="#DejaVuSans-73" x="521.492188"/>
     <use xlink:href="#DejaVuSans-74" x="573.591797"/>
     <use xlink:href="#DejaVuSans-72" x="612.800781"/>
     <use xlink:href="#DejaVuSans-61" x="653.914062"/>
     <use xlink:href="#DejaVuSans-3a" x="715.193359"/>
     <use xlink:href="#DejaVuSans-20" x="748.884766"/>
     <use xlink:href="#DejaVuSans-49" x="780.671875"/>
     <use xlink:href="#DejaVuSans-6e" x="810.164062"/>
     <use xlink:href="#DejaVuSans-64" x="873.542969"/>
     <use xlink:href="#DejaVuSans-69" x="937.019531"/>
     <use xlink:href="#DejaVuSans-63" x="964.802734"/>
     <use xlink:href="#DejaVuSans-65" x="1019.783203"/>
     <use xlink:href="#DejaVuSans-20" x="1081.306641"/>
     <use xlink:href="#DejaVuSans-4f" x="1113.09375"/>
     <use xlink:href="#DejaVuSans-20" x="1191.804688"/>
     <use xlink:href="#DejaVuSans-6d" x="1223.591797"/>
     <use xlink:href="#DejaVuSans-65" x="1321.003906"/>
     <use xlink:href="#DejaVuSans-64" x="1382.527344"/>
     <use xlink:href="#DejaVuSans-69" x="1446.003906"/>
     <use xlink:href="#DejaVuSans-6f" x="1473.787109"/>
     <use xlink:href="#DejaVuSans-20" x="1534.96875"/>
     <use xlink:href="#DejaVuSans-3d" x="1566.755859"/>
     <use xlink:href="#DejaVuSans-20" x="1650.544922"/>
     <use xlink:href="#DejaVuSans-33" x="1682.332031"/>
     <use xlink:href="#DejaVuSans-2e" x="1745.955078"/>
     <use xlink:href="#DejaVuSans-33" x="1777.742188"/>
     <use xlink:href="#DejaVuSans-20" x="1841.365234"/>
     <use xlink:href="#DejaVuSans-2f" x="1873.152344"/>
     <use xlink:href="#DejaVuSans-20" x="1906.84375"/>
     <use xlink:href="#DejaVuSans-39" x="1938.630859"/>
     <use xlink:href="#DejaVuSans-2c" x="2002.253906"/>
     <use xlink:href="#DejaVuSans-20" x="2034.041016"/>
     <use xlink:href="#DejaVuSans-73" x="2065.828125"/>
     <use xlink:href="#DejaVuSans-63" x="2117.927734"/>
     <use xlink:href="#DejaVuSans-6f" x="2172.908203"/>
     <use xlink:href="#DejaVuSans-6d" x="2234.089844"/>
     <use xlink:href="#DejaVuSans-70" x="2331.501953"/>
     <use xlink:href="#DejaVuSans-6f" x="2394.978516"/>
     <use xlink:href="#DejaVuSans-73" x="2456.160156"/>
     <use xlink:href="#DejaVuSans-74" x="2508.259766"/>
     <use xlink:href="#DejaVuSans-6f" x="2547.46875"/>
     <use xlink:href="#DejaVuSans-20" x="2608.650391"/>
     <use xlink:href="#DejaVuSans-6e" x="2640.4375"/>
     <use xlink:href="#DejaVuSans-65" x="2703.816406"/>
     <use xlink:href="#DejaVuSans-69" x="2765.339844"/>
     <use xlink:href="#DejaVuSans-20" x="2793.123047"/>
     <use xlink:href="#DejaVuSans-63" x="2824.910156"/>
     <use xlink:href="#DejaVuSans-6f" x="2879.890625"/>
     <use xlink:href="#DejaVuSans-6e" x="2941.072266"/>
     <use xlink:href="#DejaVuSans-74" x="3004.451172"/>
     <use xlink:href="#DejaVuSans-72" x="3043.660156"/>
     <use xlink:href="#DejaVuSans-69" x="3084.773438"/>
     <use xlink:href="#DejaVuSans-62" x="3112.556641"/>
     <use xlink:href="#DejaVuSans-75" x="3176.033203"/>
     <use xlink:href="#DejaVuSans-74" x="3239.412109"/>
     <use xlink:href="#DejaVuSans-69" x="3278.621094"/>
     <use xlink:href="#DejaVuSans-20" x="3306.404297"/>
     <use xlink:href="#DejaVuSans-6d" x="3338.191406"/>
     <use xlink:href="#DejaVuSans-65" x="3435.603516"/>
     <use xlink:href="#DejaVuSans-64" x="3497.126953"/>
     <use xlink:href="#DejaVuSans-69" x="3560.603516"/>
     <use xlink:href="#DejaVuSans-20" x="3588.386719"/>
     <use xlink:href="#DejaVuSans-64" x="3620.173828"/>
     <use xlink:href="#DejaVuSans-65" x="3683.650391"/>
     <use xlink:href="#DejaVuSans-6c" x="3745.173828"/>
     <use xlink:href="#DejaVuSans-6c" x="3772.957031"/>
     <use xlink:href="#DejaVuSans-65" x="3800.740234"/>
     <use xlink:href="#DejaVuSans-20" x="3862.263672"/>
     <use xlink:href="#DejaVuSans-39" x="3894.050781"/>
     <use xlink:href="#DejaVuSans-20" x="3957.673828"/>
     <use xlink:href="#DejaVuSans-63" x="3989.460938"/>
     <use xlink:href="#DejaVuSans-6f" x="4044.441406"/>
     <use xlink:href="#DejaVuSans-6d" x="4105.623047"/>
     <use xlink:href="#DejaVuSans-70" x="4203.035156"/>
     <use xlink:href="#DejaVuSans-6f" x="4266.511719"/>
     <use xlink:href="#DejaVuSans-6e" x="4327.693359"/>
     <use xlink:href="#DejaVuSans-65" x="4391.072266"/>
     <use xlink:href="#DejaVuSans-6e" x="4452.595703"/>
     <use xlink:href="#DejaVuSans-74" x="4515.974609"/>
     <use xlink:href="#DejaVuSans-69" x="4555.183594"/>
     <use xlink:href="#DejaVuSans-2e" x="4582.966797"/>
    </g>
   </g>
   <g id="legend_1">
    <g id="patch_34">
     <path d="M 56.933438 113.638438 
L 76.933437 113.638438 
L 76.933437 106.638438 
L 56.933438 106.638438 
z
" style="fill: #009e73; stroke: #ffffff; stroke-width: 0.8; stroke-linejoin: miter"/>
    </g>
    <g id="text_32">
     <!-- Copertura piena -->
     <g transform="translate(84.933437 113.638438) scale(0.1 -0.1)">
      <use xlink:href="#DejaVuSans-43"/>
      <use xlink:href="#DejaVuSans-6f" x="69.824219"/>
      <use xlink:href="#DejaVuSans-70" x="131.005859"/>
      <use xlink:href="#DejaVuSans-65" x="194.482422"/>
      <use xlink:href="#DejaVuSans-72" x="256.005859"/>
      <use xlink:href="#DejaVuSans-74" x="297.119141"/>
      <use xlink:href="#DejaVuSans-75" x="336.328125"/>
      <use xlink:href="#DejaVuSans-72" x="399.707031"/>
      <use xlink:href="#DejaVuSans-61" x="440.820312"/>
      <use xlink:href="#DejaVuSans-20" x="502.099609"/>
      <use xlink:href="#DejaVuSans-70" x="533.886719"/>
      <use xlink:href="#DejaVuSans-69" x="597.363281"/>
      <use xlink:href="#DejaVuSans-65" x="625.146484"/>
      <use xlink:href="#DejaVuSans-6e" x="686.669922"/>
      <use xlink:href="#DejaVuSans-61" x="750.048828"/>
     </g>
    </g>
    <g id="patch_35">
     <path d="M 186.067813 113.638438 
L 206.067813 113.638438 
L 206.067813 106.638438 
L 186.067813 106.638438 
z
" style="fill: url(#h145727ce73); stroke: #000000; stroke-width: 0.8; stroke-linejoin: miter"/>
    </g>
    <g id="text_33">
     <!-- Copertura parziale -->
     <g transform="translate(214.067813 113.638438) scale(0.1 -0.1)">
      <use xlink:href="#DejaVuSans-43"/>
      <use xlink:href="#DejaVuSans-6f" x="69.824219"/>
      <use xlink:href="#DejaVuSans-70" x="131.005859"/>
      <use xlink:href="#DejaVuSans-65" x="194.482422"/>
      <use xlink:href="#DejaVuSans-72" x="256.005859"/>
      <use xlink:href="#DejaVuSans-74" x="297.119141"/>
      <use xlink:href="#DejaVuSans-75" x="336.328125"/>
      <use xlink:href="#DejaVuSans-72" x="399.707031"/>
      <use xlink:href="#DejaVuSans-61" x="440.820312"/>
      <use xlink:href="#DejaVuSans-20" x="502.099609"/>
      <use xlink:href="#DejaVuSans-70" x="533.886719"/>
      <use xlink:href="#DejaVuSans-61" x="597.363281"/>
      <use xlink:href="#DejaVuSans-72" x="658.642578"/>
      <use xlink:href="#DejaVuSans-7a" x="699.755859"/>
      <use xlink:href="#DejaVuSans-69" x="752.246094"/>
      <use xlink:href="#DejaVuSans-61" x="780.029297"/>
      <use xlink:href="#DejaVuSans-6c" x="841.308594"/>
      <use xlink:href="#DejaVuSans-65" x="869.091797"/>
     </g>
    </g>
   </g>
  </g>
  <g id="axes_2">
   <g id="matplotlib.axis_3">
    <g id="ytick_7">
     <g id="line2d_31">
      <defs>
       <path id="m864bf281c7" d="M 0 0 
L 3.5 0 
" style="stroke: #000000; stroke-width: 0.8"/>
      </defs>
      <g>
       <use xlink:href="#m864bf281c7" x="965.233437" y="447.741839" style="stroke: #000000; stroke-width: 0.8"/>
      </g>
     </g>
     <g id="text_34">
      <!-- 0 -->
      <g transform="translate(972.233437 451.541058) scale(0.1 -0.1)">
       <use xlink:href="#DejaVuSans-30"/>
      </g>
     </g>
    </g>
    <g id="ytick_8">
     <g id="line2d_32">
      <g>
       <use xlink:href="#m864bf281c7" x="965.233437" y="408.774968" style="stroke: #000000; stroke-width: 0.8"/>
      </g>
     </g>
     <g id="text_35">
      <!-- 1 -->
      <g transform="translate(972.233437 412.574187) scale(0.1 -0.1)">
       <use xlink:href="#DejaVuSans-31"/>
      </g>
     </g>
    </g>
    <g id="ytick_9">
     <g id="line2d_33">
      <g>
       <use xlink:href="#m864bf281c7" x="965.233437" y="369.808097" style="stroke: #000000; stroke-width: 0.8"/>
      </g>
     </g>
     <g id="text_36">
      <!-- 2 -->
      <g transform="translate(972.233437 373.607316) scale(0.1 -0.1)">
       <use xlink:href="#DejaVuSans-32"/>
      </g>
     </g>
    </g>
    <g id="ytick_10">
     <g id="line2d_34">
      <g>
       <use xlink:href="#m864bf281c7" x="965.233437" y="330.841226" style="stroke: #000000; stroke-width: 0.8"/>
      </g>
     </g>
     <g id="text_37">
      <!-- 3 -->
      <g transform="translate(972.233437 334.640445) scale(0.1 -0.1)">
       <use xlink:href="#DejaVuSans-33"/>
      </g>
     </g>
    </g>
    <g id="ytick_11">
     <g id="line2d_35">
      <g>
       <use xlink:href="#m864bf281c7" x="965.233437" y="291.874355" style="stroke: #000000; stroke-width: 0.8"/>
      </g>
     </g>
     <g id="text_38">
      <!-- 4 -->
      <g transform="translate(972.233437 295.673574) scale(0.1 -0.1)">
       <use xlink:href="#DejaVuSans-34"/>
      </g>
     </g>
    </g>
    <g id="ytick_12">
     <g id="line2d_36">
      <g>
       <use xlink:href="#m864bf281c7" x="965.233437" y="252.907484" style="stroke: #000000; stroke-width: 0.8"/>
      </g>
     </g>
     <g id="text_39">
      <!-- 5 -->
      <g transform="translate(972.233437 256.706703) scale(0.1 -0.1)">
       <use xlink:href="#DejaVuSans-35"/>
      </g>
     </g>
    </g>
    <g id="ytick_13">
     <g id="line2d_37">
      <g>
       <use xlink:href="#m864bf281c7" x="965.233437" y="213.940613" style="stroke: #000000; stroke-width: 0.8"/>
      </g>
     </g>
     <g id="text_40">
      <!-- 6 -->
      <g transform="translate(972.233437 217.739832) scale(0.1 -0.1)">
       <use xlink:href="#DejaVuSans-36"/>
      </g>
     </g>
    </g>
    <g id="ytick_14">
     <g id="line2d_38">
      <g>
       <use xlink:href="#m864bf281c7" x="965.233437" y="174.973742" style="stroke: #000000; stroke-width: 0.8"/>
      </g>
     </g>
     <g id="text_41">
      <!-- 7 -->
      <g transform="translate(972.233437 178.772961) scale(0.1 -0.1)">
       <use xlink:href="#DejaVuSans-37"/>
      </g>
     </g>
    </g>
    <g id="ytick_15">
     <g id="line2d_39">
      <g>
       <use xlink:href="#m864bf281c7" x="965.233437" y="136.006871" style="stroke: #000000; stroke-width: 0.8"/>
      </g>
     </g>
     <g id="text_42">
      <!-- 8 -->
      <g transform="translate(972.233437 139.80609) scale(0.1 -0.1)">
       <use xlink:href="#DejaVuSans-38"/>
      </g>
     </g>
    </g>
    <g id="ytick_16">
     <g id="line2d_40">
      <g>
       <use xlink:href="#m864bf281c7" x="965.233437" y="97.04" style="stroke: #000000; stroke-width: 0.8"/>
      </g>
     </g>
     <g id="text_43">
      <!-- 9 -->
      <g transform="translate(972.233437 100.839219) scale(0.1 -0.1)">
       <use xlink:href="#DejaVuSans-39"/>
      </g>
     </g>
    </g>
    <g id="text_44">
     <!-- Indice O (0–9) -->
     <g transform="translate(990.954219 310.792951) rotate(-90) scale(0.11 -0.11)">
      <defs>
       <path id="DejaVuSans-2013" d="M 313 1978 
L 2888 1978 
L 2888 1528 
L 313 1528 
L 313 1978 
z
" transform="scale(0.015625)"/>
      </defs>
      <use xlink:href="#DejaVuSans-49"/>
      <use xlink:href="#DejaVuSans-6e" x="29.492188"/>
      <use xlink:href="#DejaVuSans-64" x="92.871094"/>
      <use xlink:href="#DejaVuSans-69" x="156.347656"/>
      <use xlink:href="#DejaVuSans-63" x="184.130859"/>
      <use xlink:href="#DejaVuSans-65" x="239.111328"/>
      <use xlink:href="#DejaVuSans-20" x="300.634766"/>
      <use xlink:href="#DejaVuSans-4f" x="332.421875"/>
      <use xlink:href="#DejaVuSans-20" x="411.132812"/>
      <use xlink:href="#DejaVuSans-28" x="442.919922"/>
      <use xlink:href="#DejaVuSans-30" x="481.933594"/>
      <use xlink:href="#DejaVuSans-2013" x="545.556641"/>
      <use xlink:href="#DejaVuSans-39" x="595.556641"/>
      <use xlink:href="#DejaVuSans-29" x="659.179688"/>
     </g>
    </g>
   </g>
   <g id="patch_36">
    <path d="M 47.933438 447.741839 
L 47.933438 97.04 
" style="fill: none; stroke: #000000; stroke-width: 0.8; stroke-linejoin: miter; stroke-linecap: square"/>
   </g>
   <g id="patch_37">
    <path d="M 965.233437 447.741839 
L 965.233437 97.04 
" style="fill: none; stroke: #000000; stroke-width: 0.8; stroke-linejoin: miter; stroke-linecap: square"/>
   </g>
   <g id="patch_38">
    <path d="M 47.933437 447.741839 
L 965.233438 447.741839 
" style="fill: none; stroke: #000000; stroke-width: 0.8; stroke-linejoin: miter; stroke-linecap: square"/>
   </g>
   <g id="patch_39">
    <path d="M 47.933437 97.04 
L 965.233438 97.04 
" style="fill: none; stroke: #000000; stroke-width: 0.8; stroke-linejoin: miter; stroke-linecap: square"/>
   </g>
  </g>
  <g id="text_45">
   <!-- Componenti dell’“Offer help” e contributo all’Indice O -->
   <g transform="translate(225.05875 20.877187) scale(0.18 -0.18)">
    <defs>
     <path id="DejaVuSans-Bold-43" d="M 4288 256 
Q 3956 84 3597 -3 
Q 3238 -91 2847 -91 
Q 1681 -91 1000 561 
Q 319 1213 319 2328 
Q 319 3447 1000 4098 
Q 1681 4750 2847 4750 
Q 3238 4750 3597 4662 
Q 3956 4575 4288 4403 
L 4288 3438 
Q 3953 3666 3628 3772 
Q 3303 3878 2944 3878 
Q 2300 3878 1931 3465 
Q 1563 3053 1563 2328 
Q 1563 1606 1931 1193 
Q 2300 781 2944 781 
Q 3303 781 3628 887 
Q 3953 994 4288 1222 
L 4288 256 
z
" transform="scale(0.015625)"/>
     <path id="DejaVuSans-Bold-6f" d="M 2203 2784 
Q 1831 2784 1636 2517 
Q 1441 2250 1441 1747 
Q 1441 1244 1636 976 
Q 1831 709 2203 709 
Q 2569 709 2762 976 
Q 2956 1244 2956 1747 
Q 2956 2250 2762 2517 
Q 2569 2784 2203 2784 
z
M 2203 3584 
Q 3106 3584 3614 3096 
Q 4122 2609 4122 1747 
Q 4122 884 3614 396 
Q 3106 -91 2203 -91 
Q 1297 -91 786 396 
Q 275 884 275 1747 
Q 275 2609 786 3096 
Q 1297 3584 2203 3584 
z
" transform="scale(0.015625)"/>
     <path id="DejaVuSans-Bold-6d" d="M 3781 2919 
Q 3994 3244 4286 3414 
Q 4578 3584 4928 3584 
Q 5531 3584 5847 3212 
Q 6163 2841 6163 2131 
L 6163 0 
L 5038 0 
L 5038 1825 
Q 5041 1866 5042 1909 
Q 5044 1953 5044 2034 
Q 5044 2406 4934 2573 
Q 4825 2741 4581 2741 
Q 4263 2741 4089 2478 
Q 3916 2216 3909 1719 
L 3909 0 
L 2784 0 
L 2784 1825 
Q 2784 2406 2684 2573 
Q 2584 2741 2328 2741 
Q 2006 2741 1831 2477 
Q 1656 2213 1656 1722 
L 1656 0 
L 531 0 
L 531 3500 
L 1656 3500 
L 1656 2988 
Q 1863 3284 2130 3434 
Q 2397 3584 2719 3584 
Q 3081 3584 3359 3409 
Q 3638 3234 3781 2919 
z
" transform="scale(0.015625)"/>
     <path id="DejaVuSans-Bold-70" d="M 1656 506 
L 1656 -1331 
L 538 -1331 
L 538 3500 
L 1656 3500 
L 1656 2988 
Q 1888 3294 2169 3439 
Q 2450 3584 2816 3584 
Q 3463 3584 3878 3070 
Q 4294 2556 4294 1747 
Q 4294 938 3878 423 
Q 3463 -91 2816 -91 
Q 2450 -91 2169 54 
Q 1888 200 1656 506 
z
M 2400 2772 
Q 2041 2772 1848 2508 
Q 1656 2244 1656 1747 
Q 1656 1250 1848 986 
Q 2041 722 2400 722 
Q 2759 722 2948 984 
Q 3138 1247 3138 1747 
Q 3138 2247 2948 2509 
Q 2759 2772 2400 2772 
z
" transform="scale(0.015625)"/>
     <path id="DejaVuSans-Bold-6e" d="M 4056 2131 
L 4056 0 
L 2931 0 
L 2931 347 
L 2931 1631 
Q 2931 2084 2911 2256 
Q 2891 2428 2841 2509 
Q 2775 2619 2662 2680 
Q 2550 2741 2406 2741 
Q 2056 2741 1856 2470 
Q 1656 2200 1656 1722 
L 1656 0 
L 538 0 
L 538 3500 
L 1656 3500 
L 1656 2988 
Q 1909 3294 2193 3439 
Q 2478 3584 2822 3584 
Q 3428 3584 3742 3212 
Q 4056 2841 4056 2131 
z
" transform="scale(0.015625)"/>
     <path id="DejaVuSans-Bold-65" d="M 4031 1759 
L 4031 1441 
L 1416 1441 
Q 1456 1047 1700 850 
Q 1944 653 2381 653 
Q 2734 653 3104 758 
Q 3475 863 3866 1075 
L 3866 213 
Q 3469 63 3072 -14 
Q 2675 -91 2278 -91 
Q 1328 -91 801 392 
Q 275 875 275 1747 
Q 275 2603 792 3093 
Q 1309 3584 2216 3584 
Q 3041 3584 3536 3087 
Q 4031 2591 4031 1759 
z
M 2881 2131 
Q 2881 2450 2695 2645 
Q 2509 2841 2209 2841 
Q 1884 2841 1681 2658 
Q 1478 2475 1428 2131 
L 2881 2131 
z
" transform="scale(0.015625)"/>
     <path id="DejaVuSans-Bold-74" d="M 1759 4494 
L 1759 3500 
L 2913 3500 
L 2913 2700 
L 1759 2700 
L 1759 1216 
Q 1759 972 1856 886 
Q 1953 800 2241 800 
L 2816 800 
L 2816 0 
L 1856 0 
Q 1194 0 917 276 
Q 641 553 641 1216 
L 641 2700 
L 84 2700 
L 84 3500 
L 641 3500 
L 641 4494 
L 1759 4494 
z
" transform="scale(0.015625)"/>
     <path id="DejaVuSans-Bold-69" d="M 538 3500 
L 1656 3500 
L 1656 0 
L 538 0 
L 538 3500 
z
M 538 4863 
L 1656 4863 
L 1656 3950 
L 538 3950 
L 538 4863 
z
" transform="scale(0.015625)"/>
     <path id="DejaVuSans-Bold-20" transform="scale(0.015625)"/>
     <path id="DejaVuSans-Bold-64" d="M 2919 2988 
L 2919 4863 
L 4044 4863 
L 4044 0 
L 2919 0 
L 2919 506 
Q 2688 197 2409 53 
Q 2131 -91 1766 -91 
Q 1119 -91 703 423 
Q 288 938 288 1747 
Q 288 2556 703 3070 
Q 1119 3584 1766 3584 
Q 2128 3584 2408 3439 
Q 2688 3294 2919 2988 
z
M 2181 722 
Q 2541 722 2730 984 
Q 2919 1247 2919 1747 
Q 2919 2247 2730 2509 
Q 2541 2772 2181 2772 
Q 1825 2772 1636 2509 
Q 1447 2247 1447 1747 
Q 1447 1247 1636 984 
Q 1825 722 2181 722 
z
" transform="scale(0.015625)"/>
     <path id="DejaVuSans-Bold-6c" d="M 538 4863 
L 1656 4863 
L 1656 0 
L 538 0 
L 538 4863 
z
" transform="scale(0.015625)"/>
     <path id="DejaVuSans-Bold-2019" d="M 716 4666 
L 1778 4666 
L 1778 3775 
L 1069 2675 
L 403 2675 
L 716 3775 
L 716 4666 
z
" transform="scale(0.015625)"/>
     <path id="DejaVuSans-Bold-201c" d="M 3303 2675 
L 2241 2675 
L 2241 3559 
L 2950 4666 
L 3616 4666 
L 3303 3559 
L 3303 2675 
z
M 1722 2675 
L 659 2675 
L 659 3566 
L 1369 4666 
L 2034 4666 
L 1722 3566 
L 1722 2675 
z
" transform="scale(0.015625)"/>
     <path id="DejaVuSans-Bold-4f" d="M 2719 3878 
Q 2169 3878 1866 3472 
Q 1563 3066 1563 2328 
Q 1563 1594 1866 1187 
Q 2169 781 2719 781 
Q 3272 781 3575 1187 
Q 3878 1594 3878 2328 
Q 3878 3066 3575 3472 
Q 3272 3878 2719 3878 
z
M 2719 4750 
Q 3844 4750 4481 4106 
Q 5119 3463 5119 2328 
Q 5119 1197 4481 553 
Q 3844 -91 2719 -91 
Q 1597 -91 958 553 
Q 319 1197 319 2328 
Q 319 3463 958 4106 
Q 1597 4750 2719 4750 
z
" transform="scale(0.015625)"/>
     <path id="DejaVuSans-Bold-66" d="M 2841 4863 
L 2841 4128 
L 2222 4128 
Q 1984 4128 1890 4042 
Q 1797 3956 1797 3744 
L 1797 3500 
L 2753 3500 
L 2753 2700 
L 1797 2700 
L 1797 0 
L 678 0 
L 678 2700 
L 122 2700 
L 122 3500 
L 678 3500 
L 678 3744 
Q 678 4316 997 4589 
Q 1316 4863 1984 4863 
L 2841 4863 
z
" transform="scale(0.015625)"/>
     <path id="DejaVuSans-Bold-72" d="M 3138 2547 
Q 2991 2616 2845 2648 
Q 2700 2681 2553 2681 
Q 2122 2681 1889 2404 
Q 1656 2128 1656 1613 
L 1656 0 
L 538 0 
L 538 3500 
L 1656 3500 
L 1656 2925 
Q 1872 3269 2151 3426 
Q 2431 3584 2822 3584 
Q 2878 3584 2943 3579 
Q 3009 3575 3134 3559 
L 3138 2547 
z
" transform="scale(0.015625)"/>
     <path id="DejaVuSans-Bold-68" d="M 4056 2131 
L 4056 0 
L 2931 0 
L 2931 347 
L 2931 1625 
Q 2931 2084 2911 2256 
Q 2891 2428 2841 2509 
Q 2775 2619 2662 2680 
Q 2550 2741 2406 2741 
Q 2056 2741 1856 2470 
Q 1656 2200 1656 1722 
L 1656 0 
L 538 0 
L 538 4863 
L 1656 4863 
L 1656 2988 
Q 1909 3294 2193 3439 
Q 2478 3584 2822 3584 
Q 3428 3584 3742 3212 
Q 4056 2841 4056 2131 
z
" transform="scale(0.015625)"/>
     <path id="DejaVuSans-Bold-201d" d="M 903 4666 
L 1966 4666 
L 1966 3775 
L 1253 2675 
L 588 2675 
L 903 3775 
L 903 4666 
z
M 2484 4666 
L 3547 4666 
L 3547 3769 
L 2834 2675 
L 2169 2675 
L 2484 3769 
L 2484 4666 
z
" transform="scale(0.015625)"/>
     <path id="DejaVuSans-Bold-63" d="M 3366 3391 
L 3366 2478 
Q 3138 2634 2908 2709 
Q 2678 2784 2431 2784 
Q 1963 2784 1702 2511 
Q 1441 2238 1441 1747 
Q 1441 1256 1702 982 
Q 1963 709 2431 709 
Q 2694 709 2930 787 
Q 3166 866 3366 1019 
L 3366 103 
Q 3103 6 2833 -42 
Q 2563 -91 2291 -91 
Q 1344 -91 809 395 
Q 275 881 275 1747 
Q 275 2613 809 3098 
Q 1344 3584 2291 3584 
Q 2566 3584 2833 3536 
Q 3100 3488 3366 3391 
z
" transform="scale(0.015625)"/>
     <path id="DejaVuSans-Bold-62" d="M 2400 722 
Q 2759 722 2948 984 
Q 3138 1247 3138 1747 
Q 3138 2247 2948 2509 
Q 2759 2772 2400 2772 
Q 2041 2772 1848 2508 
Q 1656 2244 1656 1747 
Q 1656 1250 1848 986 
Q 2041 722 2400 722 
z
M 1656 2988 
Q 1888 3294 2169 3439 
Q 2450 3584 2816 3584 
Q 3463 3584 3878 3070 
Q 4294 2556 4294 1747 
Q 4294 938 3878 423 
Q 3463 -91 2816 -91 
Q 2450 -91 2169 54 
Q 1888 200 1656 506 
L 1656 0 
L 538 0 
L 538 4863 
L 1656 4863 
L 1656 2988 
z
" transform="scale(0.015625)"/>
     <path id="DejaVuSans-Bold-75" d="M 500 1363 
L 500 3500 
L 1625 3500 
L 1625 3150 
Q 1625 2866 1622 2436 
Q 1619 2006 1619 1863 
Q 1619 1441 1641 1255 
Q 1663 1069 1716 984 
Q 1784 875 1895 815 
Q 2006 756 2150 756 
Q 2500 756 2700 1025 
Q 2900 1294 2900 1772 
L 2900 3500 
L 4019 3500 
L 4019 0 
L 2900 0 
L 2900 506 
Q 2647 200 2364 54 
Q 2081 -91 1741 -91 
Q 1134 -91 817 281 
Q 500 653 500 1363 
z
" transform="scale(0.015625)"/>
     <path id="DejaVuSans-Bold-61" d="M 2106 1575 
Q 1756 1575 1579 1456 
Q 1403 1338 1403 1106 
Q 1403 894 1545 773 
Q 1688 653 1941 653 
Q 2256 653 2472 879 
Q 2688 1106 2688 1447 
L 2688 1575 
L 2106 1575 
z
M 3816 1997 
L 3816 0 
L 2688 0 
L 2688 519 
Q 2463 200 2181 54 
Q 1900 -91 1497 -91 
Q 953 -91 614 226 
Q 275 544 275 1050 
Q 275 1666 698 1953 
Q 1122 2241 2028 2241 
L 2688 2241 
L 2688 2328 
Q 2688 2594 2478 2717 
Q 2269 2841 1825 2841 
Q 1466 2841 1156 2769 
Q 847 2697 581 2553 
L 581 3406 
Q 941 3494 1303 3539 
Q 1666 3584 2028 3584 
Q 2975 3584 3395 3211 
Q 3816 2838 3816 1997 
z
" transform="scale(0.015625)"/>
     <path id="DejaVuSans-Bold-49" d="M 588 4666 
L 1791 4666 
L 1791 0 
L 588 0 
L 588 4666 
z
" transform="scale(0.015625)"/>
    </defs>
    <use xlink:href="#DejaVuSans-Bold-43"/>
    <use xlink:href="#DejaVuSans-Bold-6f" x="73.388672"/>
    <use xlink:href="#DejaVuSans-Bold-6d" x="142.089844"/>
    <use xlink:href="#DejaVuSans-Bold-70" x="246.289062"/>
    <use xlink:href="#DejaVuSans-Bold-6f" x="317.871094"/>
    <use xlink:href="#DejaVuSans-Bold-6e" x="386.572266"/>
    <use xlink:href="#DejaVuSans-Bold-65" x="457.763672"/>
    <use xlink:href="#DejaVuSans-Bold-6e" x="525.585938"/>
    <use xlink:href="#DejaVuSans-Bold-74" x="596.777344"/>
    <use xlink:href="#DejaVuSans-Bold-69" x="644.580078"/>
    <use xlink:href="#DejaVuSans-Bold-20" x="678.857422"/>
    <use xlink:href="#DejaVuSans-Bold-64" x="713.671875"/>
    <use xlink:href="#DejaVuSans-Bold-65" x="785.253906"/>
    <use xlink:href="#DejaVuSans-Bold-6c" x="853.076172"/>
    <use xlink:href="#DejaVuSans-Bold-6c" x="887.353516"/>
    <use xlink:href="#DejaVuSans-Bold-2019" x="921.630859"/>
    <use xlink:href="#DejaVuSans-Bold-201c" x="959.619141"/>
    <use xlink:href="#DejaVuSans-Bold-4f" x="1025.341797"/>
    <use xlink:href="#DejaVuSans-Bold-66" x="1110.351562"/>
    <use xlink:href="#DejaVuSans-Bold-66" x="1153.857422"/>
    <use xlink:href="#DejaVuSans-Bold-65" x="1197.363281"/>
    <use xlink:href="#DejaVuSans-Bold-72" x="1265.185547"/>
    <use xlink:href="#DejaVuSans-Bold-20" x="1314.501953"/>
    <use xlink:href="#DejaVuSans-Bold-68" x="1349.316406"/>
    <use xlink:href="#DejaVuSans-Bold-65" x="1420.507812"/>
    <use xlink:href="#DejaVuSans-Bold-6c" x="1488.330078"/>
    <use xlink:href="#DejaVuSans-Bold-70" x="1522.607422"/>
    <use xlink:href="#DejaVuSans-Bold-201d" x="1594.189453"/>
    <use xlink:href="#DejaVuSans-Bold-20" x="1659.912109"/>
    <use xlink:href="#DejaVuSans-Bold-65" x="1694.726562"/>
    <use xlink:href="#DejaVuSans-Bold-20" x="1762.548828"/>
    <use xlink:href="#DejaVuSans-Bold-63" x="1797.363281"/>
    <use xlink:href="#DejaVuSans-Bold-6f" x="1856.640625"/>
    <use xlink:href="#DejaVuSans-Bold-6e" x="1925.341797"/>
    <use xlink:href="#DejaVuSans-Bold-74" x="1996.533203"/>
    <use xlink:href="#DejaVuSans-Bold-72" x="2044.335938"/>
    <use xlink:href="#DejaVuSans-Bold-69" x="2093.652344"/>
    <use xlink:href="#DejaVuSans-Bold-62" x="2127.929688"/>
    <use xlink:href="#DejaVuSans-Bold-75" x="2199.511719"/>
    <use xlink:href="#DejaVuSans-Bold-74" x="2270.703125"/>
    <use xlink:href="#DejaVuSans-Bold-6f" x="2318.505859"/>
    <use xlink:href="#DejaVuSans-Bold-20" x="2387.207031"/>
    <use xlink:href="#DejaVuSans-Bold-61" x="2422.021484"/>
    <use xlink:href="#DejaVuSans-Bold-6c" x="2489.501953"/>
    <use xlink:href="#DejaVuSans-Bold-6c" x="2523.779297"/>
    <use xlink:href="#DejaVuSans-Bold-2019" x="2558.056641"/>
    <use xlink:href="#DejaVuSans-Bold-49" x="2596.044922"/>
    <use xlink:href="#DejaVuSans-Bold-6e" x="2633.251953"/>
    <use xlink:href="#DejaVuSans-Bold-64" x="2704.443359"/>
    <use xlink:href="#DejaVuSans-Bold-69" x="2776.025391"/>
    <use xlink:href="#DejaVuSans-Bold-63" x="2810.302734"/>
    <use xlink:href="#DejaVuSans-Bold-65" x="2869.580078"/>
    <use xlink:href="#DejaVuSans-Bold-20" x="2937.402344"/>
    <use xlink:href="#DejaVuSans-Bold-4f" x="2972.216797"/>
   </g>
  </g>
 </g>
 <defs>
  <clipPath id="p4de8b5cd06">
   <rect x="47.933438" y="97.04" width="917.3" height="350.701839"/>
  </clipPath>
 </defs>
 <defs>
  <pattern id="h145727ce73" patternUnits="userSpaceOnUse" x="0" y="0" width="72" height="72">
   <rect x="0" y="0" width="73" height="73" fill="none"/>
   <path d="M -36 36 
L 36 -36 
M -32 40 
L 40 -32 
M -28 44 
L 44 -28 
M -24 48 
L 48 -24 
M -20 52 
L 52 -20 
M -16 56 
L 56 -16 
M -12 60 
L 60 -12 
M -8 64 
L 64 -8 
M -4 68 
L 68 -4 
M 0 72 
L 72 0 
M 4 76 
L 76 4 
M 8 80 
L 80 8 
M 12 84 
L 84 12 
M 16 88 
L 88 16 
M 20 92 
L 92 20 
M 24 96 
L 96 24 
M 28 100 
L 100 28 
M 32 104 
L 104 32 
M 36 108 
L 108 36 
" style="fill: #000000; stroke: #000000; stroke-width: 1.0; stroke-linecap: butt; stroke-linejoin: miter"/>
  </pattern>
 </defs>
</svg>
